<svg width="23" height="15" fill="none" xmlns="http://www.w3.org/2000/svg"><path fill-rule="evenodd" clip-rule="evenodd" d="M2.1444.575C1.5949.2578.892.446.5746.9958c-.3174.5497-.129 1.2525.4206 1.5699l8.1062 4.6801-8.1062 4.6801c-.5497.3174-.738 1.0202-.4206 1.5699.3173.5497 1.0202.738 1.5698.4207L11.4 8.5727l9.2554 5.3437c.5497.3173 1.2526.129 1.5699-.4207.3174-.5497.129-1.2525-.4206-1.5699l-8.1063-4.68 8.1063-4.6802c.5496-.3174.738-1.0202.4206-1.5699-.3173-.5497-1.0202-.738-1.5699-.4206l-9.2554 5.3436L2.1445.575Z" fill="#4E3536"/></svg>