<svg width="65" height="19" viewBox="0 0 65 19" fill="none" xmlns="http://www.w3.org/2000/svg">
<rect width="65" height="18.7952" rx="5" fill="#84BB9F"/>
<path d="M15.0147 6.69582C14.7171 6.69582 14.4483 6.74803 14.2081 6.85245C13.968 6.95165 13.7643 7.10044 13.5973 7.29884C13.4302 7.49201 13.3023 7.72956 13.2135 8.01149C13.1248 8.28819 13.0804 8.60145 13.0804 8.95125C13.0804 9.41068 13.1509 9.81008 13.2918 10.1494C13.438 10.4888 13.6521 10.7498 13.934 10.9326C14.2212 11.1153 14.5788 11.2067 15.0069 11.2067C15.2523 11.2067 15.4846 11.1858 15.7039 11.144C15.9232 11.1022 16.1372 11.05 16.3461 10.9874V11.5982C16.1372 11.6765 15.9206 11.734 15.6961 11.7705C15.4768 11.8071 15.2131 11.8253 14.9051 11.8253C14.336 11.8253 13.8609 11.7079 13.4798 11.4729C13.0987 11.238 12.8115 10.9039 12.6184 10.4705C12.4304 10.0372 12.3364 9.52815 12.3364 8.94341C12.3364 8.52052 12.3939 8.13418 12.5087 7.78438C12.6288 7.43458 12.8011 7.13177 13.0256 6.87594C13.2553 6.62012 13.5372 6.42434 13.8714 6.28859C14.2055 6.14763 14.5892 6.07715 15.0226 6.07715C15.3097 6.07715 15.5864 6.10586 15.8527 6.16329C16.119 6.22072 16.3565 6.30165 16.5653 6.40606L16.2834 7.00125C16.1111 6.92293 15.918 6.85245 15.7039 6.7898C15.4951 6.72715 15.2653 6.69582 15.0147 6.69582Z" fill="#4E3536"/>
<path d="M21.1219 9.6404C21.1219 9.9902 21.0749 10.3008 20.9809 10.5723C20.8922 10.8386 20.7616 11.0657 20.5894 11.2537C20.4223 11.4416 20.2161 11.5852 19.9707 11.6844C19.7305 11.7784 19.4616 11.8253 19.1641 11.8253C18.8874 11.8253 18.6315 11.7784 18.3966 11.6844C18.1616 11.5852 17.958 11.4416 17.7857 11.2537C17.6135 11.0657 17.4777 10.8386 17.3785 10.5723C17.2845 10.3008 17.2376 9.9902 17.2376 9.6404C17.2376 9.17574 17.3159 8.78418 17.4725 8.4657C17.6291 8.14201 17.8536 7.89663 18.146 7.72956C18.4384 7.55727 18.7855 7.47112 19.1876 7.47112C19.5687 7.47112 19.9028 7.55727 20.19 7.72956C20.4823 7.89663 20.7094 8.14201 20.8713 8.4657C21.0384 8.78418 21.1219 9.17574 21.1219 9.6404ZM17.9502 9.6404C17.9502 9.96932 17.992 10.2565 18.0755 10.5018C18.1643 10.742 18.3 10.9273 18.4827 11.0579C18.6655 11.1884 18.8978 11.2537 19.1797 11.2537C19.4616 11.2537 19.694 11.1884 19.8767 11.0579C20.0594 10.9273 20.1926 10.742 20.2761 10.5018C20.3649 10.2565 20.4092 9.96932 20.4092 9.6404C20.4092 9.30627 20.3649 9.02173 20.2761 8.78679C20.1873 8.55185 20.0516 8.37173 19.8689 8.24643C19.6914 8.1159 19.459 8.05064 19.1719 8.05064C18.7438 8.05064 18.4331 8.19161 18.24 8.47353C18.0468 8.75546 17.9502 9.14442 17.9502 9.6404Z" fill="#4E3536"/>
<path d="M23.0557 9.60125L21.6069 7.54944H22.3901L23.4708 9.13137L24.5437 7.54944H25.319L23.8702 9.60125L25.3973 11.747H24.6142L23.4708 10.0711L22.3118 11.747H21.5365L23.0557 9.60125Z" fill="#4E3536"/>
<path d="M28.2032 7.47112C28.7201 7.47112 29.1352 7.65125 29.4484 8.01149C29.7669 8.37173 29.9261 8.9147 29.9261 9.6404C29.9261 10.1155 29.853 10.5175 29.7069 10.8464C29.5659 11.1701 29.3649 11.4155 29.1038 11.5826C28.848 11.7444 28.5452 11.8253 28.1954 11.8253C27.9814 11.8253 27.7908 11.7966 27.6237 11.7392C27.4567 11.6818 27.3131 11.6087 27.193 11.5199C27.0781 11.4259 26.9789 11.3241 26.8954 11.2145H26.8484C26.8589 11.3033 26.8693 11.4155 26.8797 11.5512C26.8902 11.687 26.8954 11.8045 26.8954 11.9037V13.6265H26.2063V7.54944H26.7701L26.8641 8.12112H26.8954C26.9789 8.00104 27.0781 7.89141 27.193 7.79221C27.3131 7.69301 27.454 7.6147 27.6159 7.55727C27.783 7.49984 27.9787 7.47112 28.2032 7.47112ZM28.0779 8.05064C27.796 8.05064 27.5689 8.10546 27.3966 8.2151C27.2243 8.31952 27.099 8.47876 27.0207 8.69281C26.9424 8.90687 26.9006 9.17835 26.8954 9.50727V9.6404C26.8954 9.98498 26.932 10.2773 27.005 10.5175C27.0781 10.7577 27.2008 10.9404 27.3731 11.0657C27.5506 11.191 27.7908 11.2537 28.0936 11.2537C28.3494 11.2537 28.5583 11.1832 28.7201 11.0422C28.8872 10.9012 29.0099 10.7107 29.0882 10.4705C29.1717 10.2251 29.2135 9.94582 29.2135 9.63257C29.2135 9.15225 29.1195 8.76851 28.9316 8.48137C28.7488 8.19422 28.4643 8.05064 28.0779 8.05064Z" fill="#4E3536"/>
<path d="M32.6141 7.47896C33.1258 7.47896 33.5043 7.5912 33.7497 7.8157C33.995 8.0402 34.1177 8.39783 34.1177 8.88859V11.747H33.6165L33.4834 11.1518H33.4521C33.332 11.3033 33.2067 11.4312 33.0762 11.5356C32.9509 11.6348 32.8047 11.7079 32.6376 11.7549C32.4758 11.8018 32.2774 11.8253 32.0424 11.8253C31.7918 11.8253 31.5647 11.781 31.3611 11.6922C31.1627 11.6035 31.0061 11.4677 30.8912 11.285C30.7764 11.097 30.7189 10.8621 30.7189 10.5802C30.7189 10.1625 30.8834 9.84141 31.2123 9.61691C31.5412 9.38719 32.0476 9.26189 32.7316 9.241L33.4442 9.21751V8.96691C33.4442 8.61711 33.3685 8.37434 33.2171 8.23859C33.0657 8.10285 32.8517 8.03498 32.575 8.03498C32.3557 8.03498 32.1468 8.06892 31.9485 8.13679C31.7501 8.19944 31.5647 8.27253 31.3924 8.35606L31.181 7.8392C31.3637 7.74 31.5804 7.65647 31.831 7.58859C32.0816 7.5155 32.3426 7.47896 32.6141 7.47896ZM32.8177 9.71872C32.2956 9.7396 31.9328 9.82313 31.7292 9.96932C31.5308 10.1155 31.4316 10.3217 31.4316 10.588C31.4316 10.8229 31.5021 10.9952 31.643 11.1049C31.7892 11.2145 31.9746 11.2693 32.1991 11.2693C32.5541 11.2693 32.8491 11.1727 33.084 10.9796C33.3189 10.7812 33.4364 10.4784 33.4364 10.0711V9.69522L32.8177 9.71872Z" fill="#4E3536"/>
<path d="M36.1033 7.54944V9.29582H38.3823V7.54944H39.0714V11.747H38.3823V9.87534H36.1033V11.747H35.4142V7.54944H36.1033Z" fill="#4E3536"/>
<path d="M41.0505 10.1103C41.0505 10.1573 41.0479 10.2251 41.0427 10.3139C41.0427 10.3974 41.0401 10.4888 41.0349 10.588C41.0296 10.682 41.0244 10.7733 41.0192 10.8621C41.014 10.9456 41.0088 11.0135 41.0035 11.0657L43.2511 7.54944H44.0969V11.747H43.4547V9.27233C43.4547 9.1888 43.4547 9.07916 43.4547 8.94341C43.46 8.80767 43.4652 8.67454 43.4704 8.54402C43.4756 8.40827 43.4809 8.30647 43.4861 8.23859L41.2541 11.747H40.4005V7.54944H41.0505V10.1103Z" fill="#4E3536"/>
<path d="M48.3304 8.12896H46.9599V11.747H46.2786V8.12896H44.9237V7.54944H48.3304V8.12896Z" fill="#4E3536"/>
<path d="M51.0916 9.27233C51.457 9.27233 51.7598 9.31671 52 9.40546C52.2402 9.49422 52.4203 9.62735 52.5404 9.80486C52.6657 9.97715 52.7283 10.1964 52.7283 10.4627C52.7283 10.7237 52.6683 10.9508 52.5482 11.144C52.4333 11.3372 52.2532 11.486 52.0078 11.5904C51.7625 11.6948 51.4466 11.747 51.0602 11.747H49.1572V7.54944H49.8464V9.27233H51.0916ZM52.0392 10.5018C52.0392 10.246 51.9478 10.0737 51.7651 9.98498C51.5876 9.891 51.337 9.84402 51.0133 9.84402H49.8464V11.191H51.0289C51.3213 11.191 51.5615 11.1388 51.7494 11.0344C51.9426 10.93 52.0392 10.7525 52.0392 10.5018Z" fill="#4E3536"/>
</svg>
