<svg width="156" height="66" fill="none" xmlns="http://www.w3.org/2000/svg"><g filter="url(#a)"><path d="M127.56 8.09c-.174-.102-.403-.15-.72-.15-2.459 0-10.832 3.124-11.187 3.257a.436.436 0 0 0-.196.146c-.547.72-.439 3.37.443 4.691 1.214 1.822 3.005 2.337 3.867 2.422l.062.003c1.083 0 8.078-4.742 8.603-5.832.604-1.252.564-3.7-.872-4.538Z" fill="#EEE"/><path d="M126.034 8.984c-1.762 1.322-5.728 3.966-5.728 3.966-.315.943-.847 3.676-.33 5.488 1.45-.329 7.95-4.761 8.456-5.81.456-.946.544-2.571-.057-3.672-.77-.455-1.595-.531-2.341.028Z" fill="#CCD6DD"/><path d="M128.686 7.451a.438.438 0 0 0-.373-.113l-12.944 2.13a.442.442 0 0 0-.369.446c.012.445.009.77.005 1.134-.002.202-.005.417-.005.672 0 .13.059.255.159.339.896.743 3.84 2.713 4.509 3.048a.448.448 0 0 0 .466-.045c1.126-.867 7.263-4.376 8.224-4.792a.44.44 0 0 0 .263-.364c.055-.605.202-2.09.202-2.09a.442.442 0 0 0-.137-.365Z" fill="#A0041E"/><path d="M128.715 7.481c-.89-1.011-4.242-2.456-4.81-2.48a.419.419 0 0 0-.105.007c-4.453.888-7.367 3.44-8.464 4.401l-.183.16a.445.445 0 0 0-.153.353c.007.135.074.26.184.338.149.107 3.664 2.627 4.519 3.11a.446.446 0 0 0 .511-.055c1.725-1.542 7.535-4.83 8.327-5.13a.439.439 0 0 0 .174-.703Z" fill="#DD2E44"/><path d="M118.616 12.252a.44.44 0 0 1-.433-.365l-.02-.118c-.176-1.017-.374-2.17-.736-3.272a.44.44 0 0 1 .837-.274c.382 1.163.586 2.35.767 3.396l.02.117a.44.44 0 0 1-.435.516Zm2.663-.11a.441.441 0 0 1-.44-.418c-.034-.679-.523-3.513-.965-4.717a.44.44 0 0 1 .827-.305c.469 1.276.977 4.158 1.018 4.977a.44.44 0 0 1-.44.463Zm2.478-1.67a.44.44 0 0 1-.435-.376l-.05-.347c-.129-.908-.37-2.598-.74-3.71a.441.441 0 0 1 .836-.279c.395 1.188.644 2.929.777 3.865l.049.34a.44.44 0 0 1-.437.506Zm2.497-1.506a.44.44 0 0 1-.438-.397c-.082-.821-.208-1.42-.436-2.064a.44.44 0 0 1 .831-.293c.249.707.394 1.385.482 2.27a.441.441 0 0 1-.439.484Z" fill="#EA596E"/><path d="M128.738 14.712c-.755-.544-1.787-.88-2.924-.88s-2.169.336-2.924.88h-1.262v2.204c0 1.7 1.878 3.084 4.186 3.084S130 18.616 130 16.916v-2.204h-1.262Z" fill="#292F33"/><path d="M125.814 17.797c2.312 0 4.186-1.381 4.186-3.085 0-1.703-1.874-3.084-4.186-3.084s-4.186 1.381-4.186 3.085c0 1.703 1.874 3.084 4.186 3.084Z" fill="#292F33"/><path d="M128.935 14.712c0 1.217-1.397 2.204-3.121 2.204s-3.121-.987-3.121-2.204 1.397-2.203 3.121-2.203 3.121.986 3.121 2.203Z" fill="#E1E8ED"/><path d="M125.814 17.283c-1.923 0-3.489-1.153-3.489-2.57 0-1.418 1.566-2.57 3.489-2.57 1.923 0 3.488 1.152 3.488 2.57 0 1.417-1.565 2.57-3.488 2.57Zm0-4.407c-1.519 0-2.754.824-2.754 1.837 0 1.012 1.235 1.836 2.754 1.836 1.518 0 2.754-.824 2.754-1.836 0-1.013-1.236-1.837-2.754-1.837Z" fill="#E1E8ED"/><path d="M123.923 14.51c0-.185.796-.147 1.891-.147s1.854-.24 1.854-.055c0 .783-.759 1.566-1.854 1.566-1.095 0-1.891-.581-1.891-1.363Z" fill="#77B255"/><path d="M125.814 16.094c-1.223 0-2.111-.666-2.111-1.583 0-.076.03-.148.086-.204.166-.166.527-.173 1.543-.166l.482.002c.482 0 .905-.049 1.214-.085.438-.05.636-.072.77.046l.074.066.017.138c0 .859-.794 1.786-2.075 1.786Zm-1.664-1.48c.069.608.747 1.039 1.664 1.039.901 0 1.531-.592 1.623-1.193-.097.006-.233.021-.358.036-.32.037-.757.087-1.265.087l-.484-.002c-.463-.002-.978-.005-1.18.033Z" fill="#77B255"/><path d="M127.797 14.272s-.882-.44-2.203 0c-1.039.346-1.763 1.128-1.763.346 0-.782.888-1.416 1.983-1.416 1.095 0 1.983.63 1.983 1.07Z" fill="#F4900C"/><path d="M124.028 15.175a.393.393 0 0 1-.207-.056c-.21-.127-.21-.409-.21-.501 0-.902.988-1.636 2.203-1.636 1.22 0 2.203.706 2.203 1.29 0 .076-.04.147-.104.188a.223.223 0 0 1-.214.01c-.014-.008-.831-.391-2.035.01a5.827 5.827 0 0 0-.896.41c-.3.158-.54.285-.74.285Zm1.786-1.753c-.972 0-1.763.537-1.763 1.196 0 .056.005.091.01.113.102-.02.33-.14.501-.23.265-.14.594-.316.962-.438.748-.249 1.365-.233 1.782-.161-.298-.24-.824-.48-1.492-.48Z" fill="#F4900C"/></g><g filter="url(#b)"><path d="M31.862 50.135s.664 2.39.835 3.54c.194 1.298 1.49 2.325 4.591 2.325 3.1 0 4.398-1.027 4.591-2.325.172-1.15.835-3.54.835-3.54H31.862Z" fill="#BBDDF5"/><path d="M31.902 50.174c.104.509.29.832.56.665.272-.167.69-.08.561.261-.117.313.405.457.627.274.212-.175.649-.368.69.026.04.365.488.463.692.195.209-.273.783-.164.887.17.104.334.665.287.822.052.148-.222.297-.37.547-.37v-.008c.25 0 .4.156.548.378.156.235.717.282.822-.052.104-.334.678-.443.887-.17.204.268.651.17.69-.195.043-.394.48-.201.692-.026.221.183.743.039.626-.274-.128-.341.29-.428.56-.26.272.166.458-.157.562-.666H31.902Z" fill="#662113"/><path d="M43.549 48.922c0-2.053-2.81-3.717-6.275-3.717-3.465 0-6.274 1.664-6.274 3.717 0 1.656 3.756 2.517 6.274 2.517 2.518 0 6.275-.835 6.275-2.517Z" fill="#C1694F"/><path d="M37.288 55.821a.209.209 0 0 1-.209-.208v-3.609a.209.209 0 0 1 .418 0v3.609a.209.209 0 0 1-.209.208Zm-2.796-.529a.21.21 0 0 1-.207-.182l-.43-3.331a.21.21 0 0 1 .18-.235.208.208 0 0 1 .234.18l.43 3.332a.21.21 0 0 1-.207.236Zm1.327.407a.209.209 0 0 1-.208-.191l-.295-3.556a.209.209 0 1 1 .416-.035l.295 3.557a.209.209 0 0 1-.19.225h-.018Zm-2.487-1.269a.157.157 0 0 1-.153-.125l-.626-3.105a.156.156 0 0 1 .122-.184.156.156 0 0 1 .184.122l.626 3.105a.156.156 0 0 1-.153.187Zm6.72.815c-.01 0-.02 0-.03-.002a.209.209 0 0 1-.178-.236l.472-3.285a.212.212 0 0 1 .236-.177.209.209 0 0 1 .177.237l-.471 3.284a.209.209 0 0 1-.207.179Zm-1.27.455-.018-.001a.209.209 0 0 1-.19-.225l.295-3.557c.01-.115.122-.198.225-.19.115.009.2.11.19.225l-.295 3.556a.208.208 0 0 1-.207.191Zm2.497-1.253c-.01 0-.02 0-.03-.003a.156.156 0 0 1-.124-.182l.6-3.122a.156.156 0 1 1 .307.058l-.6 3.122a.156.156 0 0 1-.153.127Z" fill="#88C9F9"/><path d="M36.834 41s.454.477.908.487c.947.02 1.818.549 1.818 1.463 0 0 2.195 0 2.271 1.951 0 0 1.108.019 1.362 1.95.19 1.443-1.268 3.434-5.905 3.413-4.088-.018-6.18-1.47-5.905-3.412.265-1.87 1.817-1.95 1.817-1.95s-.265-2.44 2.725-2.439c0 0 .303-.975.91-1.463Z" fill="#FFE8B6"/><path d="M37.25 45.389c1.226-.463 2.347-1.3 2.31-2.438 0-.358-.137-.655-.356-.887.269 1.172-1.524 2.504-3.505 2.715-2.48.264-2.196-1.198-2.196-1.198l-.003.003c-.369.64-.3 1.318-.3 1.318.378.995 2.328 1.137 4.05.487Z" fill="#FFCC4D"/><path d="M41.831 44.902c-.002-.06-.012-.112-.019-.168-.048-.283-.189-.629-.323-.892a1.743 1.743 0 0 0-.263-.294c.463 1.848-2.321 4.07-4.979 4.584-3.464.67-4.864-1.28-4.864-1.28-.143 1.009.358 1.883 1.44 2.495 4.268 1.74 9.045-2.544 9.008-4.445Z" fill="#FFCC4D"/><path d="m33.402 46.932-.493.673a.419.419 0 0 1-.583.09.419.419 0 0 1-.09-.583l.492-.674a.419.419 0 0 1 .584-.09.419.419 0 0 1 .09.584Z" fill="#DD2E44"/><path d="m36.009 44.422-.817-.175a.418.418 0 0 1 .175-.816l.817.175a.418.418 0 0 1-.175.816Z" fill="#55ACEE"/><path d="m36.633 46.92.548.63a.419.419 0 0 1-.04.589.419.419 0 0 1-.59-.041l-.548-.63a.419.419 0 0 1 .041-.589.419.419 0 0 1 .59.041Z" fill="#77B255"/><path d="m39.948 45.804-.781.295a.419.419 0 0 1-.538-.243.419.419 0 0 1 .243-.538l.78-.295a.419.419 0 0 1 .539.243.418.418 0 0 1-.243.538Z" fill="#F4900C"/><path d="m42.45 46.87-.418.722a.419.419 0 0 1-.57.153.419.419 0 0 1-.153-.57l.418-.723a.419.419 0 0 1 .57-.153.419.419 0 0 1 .152.57Z" fill="#AA8DD8"/></g><g filter="url(#c)"><path d="M84.466 10.699c0 2.77-2.151 3.2-2.151 5.783 0 1.333-1.344 1.445-2.367 1.445-.883 0-2.833-.335-2.833-1.446 0-2.58-2.115-3.011-2.115-5.782C75 8.104 77.274 6 79.769 6c2.496 0 4.697 2.104 4.697 4.699Z" fill="#FFD983"/><path d="M81.526 19.924c0 .357-.961 1.076-1.793 1.076s-1.793-.72-1.793-1.076c0-.356.961-.215 1.793-.215s1.793-.141 1.793.215Z" fill="#CCD6DD"/><path d="M81.758 10.369a.43.43 0 0 0-.608 0l-1.417 1.417-1.417-1.417a.43.43 0 1 0-.608.608l1.595 1.595v4.555a.43.43 0 1 0 .86 0v-4.555l1.596-1.595a.43.43 0 0 0 0-.608Z" fill="#FFCC4D"/><path d="M82.315 19.279a.86.86 0 0 1-.86.86h-3.443a.86.86 0 0 1-.86-.86v-2.582h5.163v2.582Z" fill="#99AAB5"/><path d="M77.151 19.71a.43.43 0 0 1-.07-.855l5.163-.861a.43.43 0 1 1 .141.849l-5.163.86a.4.4 0 0 1-.071.006Zm0-1.722a.43.43 0 0 1-.07-.855l5.163-.86a.43.43 0 1 1 .141.849l-5.163.86a.4.4 0 0 1-.071.006Z" fill="#CCD6DD"/></g><g filter="url(#d)"><path d="M84.5 53.333c0 .92-.746 1.667-1.667 1.667h-9.166c-.92 0-1.667-.746-1.667-1.667V41.667c0-.92.746-1.667 1.667-1.667h9.166c.92 0 1.667.746 1.667 1.667v11.666Z" fill="#CCD6DD"/></g><g filter="url(#e)"><path d="M82.833 50c0 .23-.186.417-.416.417h-8.334a.417.417 0 1 1 0-.834h8.334c.23 0 .416.187.416.417Zm-6.666 1.667c0 .23-.187.416-.417.416h-1.667a.417.417 0 1 1 0-.833h1.667c.23 0 .417.186.417.417Zm6.666-8.334c0 .23-.186.417-.416.417h-8.334a.417.417 0 0 1 0-.833h8.334c.23 0 .416.186.416.416Zm0 1.667c0 .23-.186.417-.416.417h-8.334a.417.417 0 1 1 0-.834h8.334c.23 0 .416.187.416.417Zm0 1.667c0 .23-.186.416-.416.416h-8.334a.417.417 0 1 1 0-.833h8.334c.23 0 .416.186.416.417Zm0 1.666c0 .23-.186.417-.416.417h-8.334a.417.417 0 1 1 0-.833h8.334c.23 0 .416.186.416.416Z" fill="#99AAB5"/></g><g filter="url(#f)"><path d="M84.5 42.613c-.345-.223-.766-.24-1.05-.01l-.33.27-.619.505-.041.033-.99.807-4.95 4.036c-.182.149-.33.508-.488.864-.158.354-.404 1.189-.602 1.83-.061.104-.443.77-.23 1.022.218.256.97.004 1.07-.032.678-.072 1.555-.155 1.938-.241.385-.088.772-.165.954-.314.003-.002.004-.007.007-.01l4.941-4.027.33-.269.06-.05v-4.414Z" fill="#66757F"/></g><g filter="url(#g)"><path d="M79.144 49.386s-.531-.784-.883-1.064c-.28-.351-1.062-.882-1.062-.882-.186-.185-.496-.2-.678-.017-.182.182-.33.569-.49.954-.196.478-.53 1.73-.736 2.397-.034.113.216-.188.21-.088a.845.845 0 0 0 .03.242l-.06.067.087.028.028.087.066-.06c.078.019.164.034.242.03.1-.006-.201.245-.088.21.666-.206 1.92-.54 2.397-.737.385-.159.772-.307.955-.49.182-.18.169-.49-.018-.677Z" fill="#D99E82"/></g><g filter="url(#h)"><path d="M82.13 41.813a.932.932 0 0 0 0 1.32l1.32 1.32a.934.934 0 0 0 1.32 0l1.32-1.32a.934.934 0 0 0 0-1.32l-1.32-1.32a.933.933 0 0 0-1.32 0l-1.32 1.32Z" fill="#EA596E"/></g><g filter="url(#i)"><path d="m76.52 47.423 1.321 1.32 1.32 1.32 4.95-4.95-2.64-2.64-4.95 4.95Z" fill="#FFCC4D"/></g><g filter="url(#j)"><path d="M76.29 51.142s-.858.473-1.09.24c-.231-.232.243-1.087.243-1.087s.813.015.848.847Z" fill="#292F33"/></g><g filter="url(#k)"><path d="m81.47 42.473 1.65-1.65 2.64 2.64-1.65 1.65-2.64-2.64Z" fill="#CCD6DD"/></g><g filter="url(#l)"><path d="m82.46 41.483.33-.33 2.64 2.64-.33.33-2.64-2.64Zm-.66.66.33-.33 2.64 2.64-.33.33-2.64-2.64Z" fill="#99AAB5"/></g><g filter="url(#m)"><path d="M41.225 7.728a2.874 2.874 0 0 0-2.874-2.874c-.41 0-1.151.242-1.151.242l-5.492.58s-1.137-.662-1.834-.662a2.874 2.874 0 0 0-2.86 3.167C27.17 11.972 30.285 15 34.113 15a7.112 7.112 0 0 0 7.113-7.112c0-.022-.004-.043-.005-.064.001-.032.005-.064.005-.096Z" fill="#FFCB4C"/><path d="M39.186 5.692c-.394-.103-.423.161-.922.102-.488-.057.18-.309-.081-.456-.088-.05-.214-.06-.37-.041-.44.054-7.092.227-7.34.347-.221.106-.351.23-.552.042-.252-.235-.613-.1-.718-.021-.135.101-.163.302.098.534.26.176.7.36 1.45.485.082.014.152.02.218.022.514.017.585-.699 1.31-.718.475-.013 4.666.447 5.01.4a.98.98 0 0 1 .139-.01c.654 0 .805.607 1.501.133.295-.24.758-.69.257-.82Z" fill="#F19020"/><path d="M29.066 3.752a8.426 8.426 0 0 1 1.407 1.892c.236.43.4.807.496 1.062.514.017.585-.28 1.31-.3.475-.012.746.322 1.097.515.628.344 1.075-.306 1.556-.306.356 0 .928.505 1.329.32.58-.269.684-.498 1.029-.546.135-.33.31-.71.524-1.091.31-.554.702-1.115 1.188-1.545h-9.936v-.001Z" fill="#F36C24"/><path d="M38.843 3.886c.535-.529-9.64.007-9.348.33.414.457.921 1.319.921 1.319s1.99 1.006 3.494-.262c1.046.627 2.51.405 3.164-.673 0 0 .509.19 1.025.222 0 0 .399-.596.744-.936Z" fill="#CE5C1F"/><path d="M34.112 13.99c1.001 0 1.813-.926 1.813-2.07 0-1.144-.812-2.071-1.813-2.071-1 0-1.812.927-1.812 2.07 0 1.145.811 2.072 1.812 2.072ZM32.439 8.56c0 .616-.375 1.115-.837 1.115-.462 0-.837-.5-.837-1.115 0-.617.375-1.116.837-1.116.462 0 .837.5.837 1.116Zm5.02 0c0 .615-.374 1.115-.836 1.115-.463 0-.837-.5-.837-1.116 0-.616.375-1.116.837-1.116.462 0 .836.5.836 1.116Z" fill="#65471B"/><path d="M39.603 1.497c-.1 0-.195.019-.287.046a1.56 1.56 0 0 0-1.212-.585c-.036 0-.07.009-.107.011a1.667 1.667 0 0 0-1.25-.568 1.67 1.67 0 0 0-1.458.864.935.935 0 0 0-1.6-.206A1.564 1.564 0 0 0 32.212 0c-.553 0-1.038.288-1.317.72a1.493 1.493 0 0 0-.234-.023c-.6 0-1.114.34-1.378.833a1.412 1.412 0 1 0-.261 2.798c.246 0 .475-.067.675-.178a.934.934 0 0 0 .74.173c.357.577.99.963 1.719.963a2.03 2.03 0 0 0 1.704-.927c.3.369.754.61 1.267.61.76 0 1.392-.519 1.58-1.219.014 0 .027.005.041.005.119 0 .234-.013.346-.037.273.233.623.378 1.01.378.492 0 .925-.23 1.213-.584.092.027.187.046.287.046a1.03 1.03 0 1 0 0-2.061Z" fill="#CCD6DD"/><path d="M38.21 3.239a.887.887 0 1 0 0-1.775.887.887 0 0 0 0 1.775ZM34.897 2.408a.895.895 0 0 0-1.328-.794.697.697 0 0 0-1.215-.128 1.56 1.56 0 0 0-1.066-.424c-.734 0-1.345.506-1.516 1.188a.84.84 0 0 0-1.44.592.842.842 0 0 0 1.544.463c.217.452.64.783 1.15.87a.937.937 0 0 0 1.729-.266c.135.075.289.122.454.122a.94.94 0 0 0 .917-.732.902.902 0 0 0 .771-.89Z" fill="#E1E8ED"/></g><g filter="url(#n)"><path d="M19.214 37.972c0 4.201-3.405 4.027-7.607 4.027S4 42.173 4 37.972c0-3.58 3.58-8.502 5.817-10.292 1.23-.895 2.295-.918 3.58 0 3.132 2.237 5.817 8.054 5.817 10.292Z" fill="#EEE"/><path d="M15.75 39.601a.452.452 0 1 1-.512-.746l.747-.512a.452.452 0 0 1 .511.746l-.746.512Zm1.09-3.174a.447.447 0 1 1 .339-.83l.828.339a.447.447 0 1 1-.338.828l-.828-.337Zm-2.01-2.352a.452.452 0 0 1 .34-.838l.84.34a.453.453 0 0 1-.343.84l-.837-.342Zm-9.398 3.132a.452.452 0 1 1 .342-.839l.838.342a.453.453 0 0 1-.341.839l-.839-.342Zm1.592-2.752a.452.452 0 1 1-.512-.746l.747-.512a.452.452 0 1 1 .511.746l-.746.512Zm4.04 1.674a.671.671 0 1 1 .506-1.244l1.243.507a.67.67 0 1 1-.506 1.243l-1.243-.506Zm-2.767 2.708a.452.452 0 1 1 .321.845l-.847.323a.452.452 0 0 1-.32-.847l.846-.321Z" fill="#CCD6DD"/><path d="M14.292 35.734h-5.37a.895.895 0 0 0-.895.895v5.286c1.067.1 2.286.084 3.58.084 1.295 0 2.513.016 3.58-.084v-5.286c0-.494-.401-.895-.895-.895Z" fill="#292F33"/></g><g filter="url(#o)"><path d="M121.5 58a7.5 7.5 0 1 0 0-15 7.5 7.5 0 0 0 0 15Z" fill="#FFCC4D"/><path d="M116.916 50.083a.417.417 0 0 1-.372-.603c.022-.043.549-1.063 2.039-1.063 1.491 0 2.018 1.02 2.039 1.063a.417.417 0 0 1-.742.378c-.019-.034-.347-.608-1.297-.608-.965 0-1.291.597-1.294.603a.416.416 0 0 1-.373.23Zm9.167 0a.415.415 0 0 0 .372-.603c-.021-.043-.549-1.063-2.039-1.063-1.49 0-2.017 1.02-2.039 1.063a.417.417 0 0 0 .743.378c.018-.034.346-.608 1.296-.608.966 0 1.291.597 1.294.603.073.146.22.23.373.23Zm.21 2.717c.134-.312.192-.524.194-.532a.417.417 0 0 0-.808-.203c-.031.123-.812 3.018-4.179 3.018s-4.148-2.895-4.179-3.018a.418.418 0 0 0-.809.203c.01.036.959 3.649 4.988 3.649.687 0 1.279-.111 1.798-.286 1.804-.607 2.656-2.046 2.995-2.831Z" fill="#664500"/><path d="m127.503 54.117-1.232-1.271s-.283-.183-.53.237a5.44 5.44 0 0 1-1.639 1.737c-.326.217-.892.496-1.124.55-.306.07-.162.401-.162.401.244-.053.438-.125.438-.125l.123.123 1.136 1.136c.72.72 2.084.833 2.917 0 .833-.833.793-2.068.073-2.788Z" fill="#E75B70"/><path d="M126.465 55.947a.229.229 0 0 0 0-.32l-1.512-1.513-.332.312 1.522 1.522a.228.228 0 0 0 .322 0Z" fill="#DE3146"/></g><g filter="url(#p)"><path d="M148.978 26.704a.424.424 0 0 1-.189-.566l.451-.905a.423.423 0 0 1 .566-.19.424.424 0 0 1 .189.566l-.451.905a.424.424 0 0 1-.566.19Zm.414.927-.012-.035a.405.405 0 0 1 .254-.51l1.647-.547c.21-.07.44.044.51.255l.011.034a.404.404 0 0 1-.254.511l-1.646.546a.404.404 0 0 1-.51-.254Zm.216.955a.423.423 0 0 0 .19.565l.905.451a.423.423 0 0 0 .376-.755l-.905-.45a.424.424 0 0 0-.566.189Z" fill="#FA743E"/><path d="M141.377 38.455c-.439-.148-1.315-.401-1.129-1.888l.272-2.182c.051-.409.497-.533.982-.763.422-.2 1.44-.887 1.691-2.892.218-1.752-.112-4.521-.198-5.19l-1.931-.222-1.931-.224c-.237.631-1.191 3.251-1.378 5.008-.214 2.009.621 2.91.986 3.2.421.335.826.558.782.968l-.233 2.186c-.158 1.49-1.069 1.537-1.53 1.58-.876.081-.924.794-.501.838.424.046 2.207.255 2.207.255s1.785.204 2.208.256c.422.053.537-.651-.297-.93Z" fill="#E1E8ED"/><path d="M142.496 26.433a5.005 5.005 0 0 1-2 .635c-.697.06-1.561-.03-1.703.44-.285.944-.513 1.78-.604 2.64-.174 1.63.391 2.416.729 2.732l.01.008c.041.034.443.341 1.201.429.753.087 1.23-.115 1.285-.14l.013-.007c.402-.231 1.13-.868 1.333-2.493.15-1.199.029-2.924-.082-4.047-.008-.086-.021-.3-.182-.197Z" fill="#FFCC4D"/><path d="M141.892 27.977a.271.271 0 1 0 .001-.543.271.271 0 0 0-.001.543ZM141.002 28.883a.272.272 0 1 0 0-.544.272.272 0 0 0 0 .544ZM142.023 29.927a.272.272 0 1 0 0-.544.272.272 0 0 0 0 .544ZM140.552 30.606a.272.272 0 1 0 0-.544.272.272 0 0 0 0 .544ZM139.683 29.479a.272.272 0 1 0 0-.545.272.272 0 0 0 0 .545ZM139.538 28.192a.272.272 0 1 0 0-.544.272.272 0 0 0 0 .544Z" fill="#FFD983"/><path d="M145.452 39.066c.439-.147 1.315-.4 1.129-1.887l-.272-2.182c-.051-.409-.497-.533-.982-.763-.423-.2-1.44-.887-1.691-2.892-.218-1.752.112-4.521.198-5.19l1.931-.223 1.93-.223c.237.632 1.191 3.252 1.378 5.008.214 2.009-.621 2.91-.986 3.2-.421.336-.826.558-.782.968l.233 2.187c.158 1.489 1.069 1.536 1.53 1.58.876.08.924.793.501.837-.424.046-2.207.255-2.207.255s-1.785.204-2.207.256c-.422.053-.537-.65.297-.93Z" fill="#E1E8ED"/><path d="M144.333 27.044c.162.103.995.552 2 .636.697.059 1.561-.03 1.703.44.286.944.513 1.78.604 2.64.174 1.63-.391 2.416-.729 2.732l-.009.008c-.042.034-.444.341-1.202.429-.753.087-1.23-.115-1.285-.14l-.013-.007c-.402-.231-1.13-.868-1.333-2.493-.149-1.199-.029-2.924.082-4.047.008-.086.021-.3.182-.198Z" fill="#FFCC4D"/><path d="M144.936 28.589a.272.272 0 1 0 .001-.543.272.272 0 0 0-.001.543ZM145.827 29.495a.272.272 0 1 0 0-.545.272.272 0 0 0 0 .545ZM144.806 30.54a.272.272 0 1 0 0-.545.272.272 0 0 0 0 .544ZM146.277 31.219a.272.272 0 1 0 0-.545.272.272 0 0 0 0 .545ZM147.146 30.09a.272.272 0 1 0 0-.544.272.272 0 0 0 0 .545ZM147.291 28.805a.272.272 0 1 0 0-.545.272.272 0 0 0 0 .544Z" fill="#FFD983"/></g><defs><filter id="a" x="111" y="5" width="23" height="23" filterUnits="userSpaceOnUse" color-interpolation-filters="sRGB"><feFlood flood-opacity="0" result="BackgroundImageFix"/><feColorMatrix in="SourceAlpha" values="0 0 0 0 0 0 0 0 0 0 0 0 0 0 0 0 0 0 127 0" result="hardAlpha"/><feOffset dy="4"/><feGaussianBlur stdDeviation="2"/><feComposite in2="hardAlpha" operator="out"/><feColorMatrix values="0 0 0 0 0 0 0 0 0 0 0 0 0 0 0 0 0 0 0.25 0"/><feBlend in2="BackgroundImageFix" result="effect1_dropShadow_69_684"/><feBlend in="SourceGraphic" in2="effect1_dropShadow_69_684" result="shape"/></filter><filter id="b" x="27" y="41" width="20.549" height="23" filterUnits="userSpaceOnUse" color-interpolation-filters="sRGB"><feFlood flood-opacity="0" result="BackgroundImageFix"/><feColorMatrix in="SourceAlpha" values="0 0 0 0 0 0 0 0 0 0 0 0 0 0 0 0 0 0 127 0" result="hardAlpha"/><feOffset dy="4"/><feGaussianBlur stdDeviation="2"/><feComposite in2="hardAlpha" operator="out"/><feColorMatrix values="0 0 0 0 0 0 0 0 0 0 0 0 0 0 0 0 0 0 0.25 0"/><feBlend in2="BackgroundImageFix" result="effect1_dropShadow_69_684"/><feBlend in="SourceGraphic" in2="effect1_dropShadow_69_684" result="shape"/></filter><filter id="c" x="71" y="6" width="17.466" height="23" filterUnits="userSpaceOnUse" color-interpolation-filters="sRGB"><feFlood flood-opacity="0" result="BackgroundImageFix"/><feColorMatrix in="SourceAlpha" values="0 0 0 0 0 0 0 0 0 0 0 0 0 0 0 0 0 0 127 0" result="hardAlpha"/><feOffset dy="4"/><feGaussianBlur stdDeviation="2"/><feComposite in2="hardAlpha" operator="out"/><feColorMatrix values="0 0 0 0 0 0 0 0 0 0 0 0 0 0 0 0 0 0 0.25 0"/><feBlend in2="BackgroundImageFix" result="effect1_dropShadow_69_684"/><feBlend in="SourceGraphic" in2="effect1_dropShadow_69_684" result="shape"/></filter><filter id="d" x="68" y="40" width="20.5" height="23" filterUnits="userSpaceOnUse" color-interpolation-filters="sRGB"><feFlood flood-opacity="0" result="BackgroundImageFix"/><feColorMatrix in="SourceAlpha" values="0 0 0 0 0 0 0 0 0 0 0 0 0 0 0 0 0 0 127 0" result="hardAlpha"/><feOffset dy="4"/><feGaussianBlur stdDeviation="2"/><feComposite in2="hardAlpha" operator="out"/><feColorMatrix values="0 0 0 0 0 0 0 0 0 0 0 0 0 0 0 0 0 0 0.25 0"/><feBlend in2="BackgroundImageFix" result="effect1_dropShadow_69_684"/><feBlend in="SourceGraphic" in2="effect1_dropShadow_69_684" result="shape"/></filter><filter id="e" x="69.667" y="42.917" width="17.167" height="17.167" filterUnits="userSpaceOnUse" color-interpolation-filters="sRGB"><feFlood flood-opacity="0" result="BackgroundImageFix"/><feColorMatrix in="SourceAlpha" values="0 0 0 0 0 0 0 0 0 0 0 0 0 0 0 0 0 0 127 0" result="hardAlpha"/><feOffset dy="4"/><feGaussianBlur stdDeviation="2"/><feComposite in2="hardAlpha" operator="out"/><feColorMatrix values="0 0 0 0 0 0 0 0 0 0 0 0 0 0 0 0 0 0 0.25 0"/><feBlend in2="BackgroundImageFix" result="effect1_dropShadow_69_684"/><feBlend in="SourceGraphic" in2="effect1_dropShadow_69_684" result="shape"/></filter><filter id="f" x="71.136" y="42.438" width="17.364" height="17.646" filterUnits="userSpaceOnUse" color-interpolation-filters="sRGB"><feFlood flood-opacity="0" result="BackgroundImageFix"/><feColorMatrix in="SourceAlpha" values="0 0 0 0 0 0 0 0 0 0 0 0 0 0 0 0 0 0 127 0" result="hardAlpha"/><feOffset dy="4"/><feGaussianBlur stdDeviation="2"/><feComposite in2="hardAlpha" operator="out"/><feColorMatrix values="0 0 0 0 0 0 0 0 0 0 0 0 0 0 0 0 0 0 0.25 0"/><feBlend in2="BackgroundImageFix" result="effect1_dropShadow_69_684"/><feBlend in="SourceGraphic" in2="effect1_dropShadow_69_684" result="shape"/></filter><filter id="g" x="71.292" y="47.293" width="12" height="12" filterUnits="userSpaceOnUse" color-interpolation-filters="sRGB"><feFlood flood-opacity="0" result="BackgroundImageFix"/><feColorMatrix in="SourceAlpha" values="0 0 0 0 0 0 0 0 0 0 0 0 0 0 0 0 0 0 127 0" result="hardAlpha"/><feOffset dy="4"/><feGaussianBlur stdDeviation="2"/><feComposite in2="hardAlpha" operator="out"/><feColorMatrix values="0 0 0 0 0 0 0 0 0 0 0 0 0 0 0 0 0 0 0.25 0"/><feBlend in2="BackgroundImageFix" result="effect1_dropShadow_69_684"/><feBlend in="SourceGraphic" in2="effect1_dropShadow_69_684" result="shape"/></filter><filter id="h" x="77.856" y="40.219" width="12.507" height="12.507" filterUnits="userSpaceOnUse" color-interpolation-filters="sRGB"><feFlood flood-opacity="0" result="BackgroundImageFix"/><feColorMatrix in="SourceAlpha" values="0 0 0 0 0 0 0 0 0 0 0 0 0 0 0 0 0 0 127 0" result="hardAlpha"/><feOffset dy="4"/><feGaussianBlur stdDeviation="2"/><feComposite in2="hardAlpha" operator="out"/><feColorMatrix values="0 0 0 0 0 0 0 0 0 0 0 0 0 0 0 0 0 0 0.25 0"/><feBlend in2="BackgroundImageFix" result="effect1_dropShadow_69_684"/><feBlend in="SourceGraphic" in2="effect1_dropShadow_69_684" result="shape"/></filter><filter id="i" x="72.52" y="42.473" width="15.59" height="15.59" filterUnits="userSpaceOnUse" color-interpolation-filters="sRGB"><feFlood flood-opacity="0" result="BackgroundImageFix"/><feColorMatrix in="SourceAlpha" values="0 0 0 0 0 0 0 0 0 0 0 0 0 0 0 0 0 0 127 0" result="hardAlpha"/><feOffset dy="4"/><feGaussianBlur stdDeviation="2"/><feComposite in2="hardAlpha" operator="out"/><feColorMatrix values="0 0 0 0 0 0 0 0 0 0 0 0 0 0 0 0 0 0 0.25 0"/><feBlend in2="BackgroundImageFix" result="effect1_dropShadow_69_684"/><feBlend in="SourceGraphic" in2="effect1_dropShadow_69_684" result="shape"/></filter><filter id="j" x="71.137" y="50.295" width="9.154" height="9.152" filterUnits="userSpaceOnUse" color-interpolation-filters="sRGB"><feFlood flood-opacity="0" result="BackgroundImageFix"/><feColorMatrix in="SourceAlpha" values="0 0 0 0 0 0 0 0 0 0 0 0 0 0 0 0 0 0 127 0" result="hardAlpha"/><feOffset dy="4"/><feGaussianBlur stdDeviation="2"/><feComposite in2="hardAlpha" operator="out"/><feColorMatrix values="0 0 0 0 0 0 0 0 0 0 0 0 0 0 0 0 0 0 0.25 0"/><feBlend in2="BackgroundImageFix" result="effect1_dropShadow_69_684"/><feBlend in="SourceGraphic" in2="effect1_dropShadow_69_684" result="shape"/></filter><filter id="k" x="77.47" y="40.823" width="12.29" height="12.29" filterUnits="userSpaceOnUse" color-interpolation-filters="sRGB"><feFlood flood-opacity="0" result="BackgroundImageFix"/><feColorMatrix in="SourceAlpha" values="0 0 0 0 0 0 0 0 0 0 0 0 0 0 0 0 0 0 127 0" result="hardAlpha"/><feOffset dy="4"/><feGaussianBlur stdDeviation="2"/><feComposite in2="hardAlpha" operator="out"/><feColorMatrix values="0 0 0 0 0 0 0 0 0 0 0 0 0 0 0 0 0 0 0.25 0"/><feBlend in2="BackgroundImageFix" result="effect1_dropShadow_69_684"/><feBlend in="SourceGraphic" in2="effect1_dropShadow_69_684" result="shape"/></filter><filter id="l" x="77.8" y="41.153" width="11.63" height="11.63" filterUnits="userSpaceOnUse" color-interpolation-filters="sRGB"><feFlood flood-opacity="0" result="BackgroundImageFix"/><feColorMatrix in="SourceAlpha" values="0 0 0 0 0 0 0 0 0 0 0 0 0 0 0 0 0 0 127 0" result="hardAlpha"/><feOffset dy="4"/><feGaussianBlur stdDeviation="2"/><feComposite in2="hardAlpha" operator="out"/><feColorMatrix values="0 0 0 0 0 0 0 0 0 0 0 0 0 0 0 0 0 0 0.25 0"/><feBlend in2="BackgroundImageFix" result="effect1_dropShadow_69_684"/><feBlend in="SourceGraphic" in2="effect1_dropShadow_69_684" result="shape"/></filter><filter id="m" x="23" y="0" width="22.225" height="23" filterUnits="userSpaceOnUse" color-interpolation-filters="sRGB"><feFlood flood-opacity="0" result="BackgroundImageFix"/><feColorMatrix in="SourceAlpha" values="0 0 0 0 0 0 0 0 0 0 0 0 0 0 0 0 0 0 127 0" result="hardAlpha"/><feOffset dy="4"/><feGaussianBlur stdDeviation="2"/><feComposite in2="hardAlpha" operator="out"/><feColorMatrix values="0 0 0 0 0 0 0 0 0 0 0 0 0 0 0 0 0 0 0.25 0"/><feBlend in2="BackgroundImageFix" result="effect1_dropShadow_69_684"/><feBlend in="SourceGraphic" in2="effect1_dropShadow_69_684" result="shape"/></filter><filter id="n" x="0" y="27" width="23.214" height="23" filterUnits="userSpaceOnUse" color-interpolation-filters="sRGB"><feFlood flood-opacity="0" result="BackgroundImageFix"/><feColorMatrix in="SourceAlpha" values="0 0 0 0 0 0 0 0 0 0 0 0 0 0 0 0 0 0 127 0" result="hardAlpha"/><feOffset dy="4"/><feGaussianBlur stdDeviation="2"/><feComposite in2="hardAlpha" operator="out"/><feColorMatrix values="0 0 0 0 0 0 0 0 0 0 0 0 0 0 0 0 0 0 0.25 0"/><feBlend in2="BackgroundImageFix" result="effect1_dropShadow_69_684"/><feBlend in="SourceGraphic" in2="effect1_dropShadow_69_684" result="shape"/></filter><filter id="o" x="110" y="43" width="23" height="23" filterUnits="userSpaceOnUse" color-interpolation-filters="sRGB"><feFlood flood-opacity="0" result="BackgroundImageFix"/><feColorMatrix in="SourceAlpha" values="0 0 0 0 0 0 0 0 0 0 0 0 0 0 0 0 0 0 127 0" result="hardAlpha"/><feOffset dy="4"/><feGaussianBlur stdDeviation="2"/><feComposite in2="hardAlpha" operator="out"/><feColorMatrix values="0 0 0 0 0 0 0 0 0 0 0 0 0 0 0 0 0 0 0.25 0"/><feBlend in2="BackgroundImageFix" result="effect1_dropShadow_69_684"/><feBlend in="SourceGraphic" in2="effect1_dropShadow_69_684" result="shape"/></filter><filter id="p" x="133" y="25" width="22.823" height="23" filterUnits="userSpaceOnUse" color-interpolation-filters="sRGB"><feFlood flood-opacity="0" result="BackgroundImageFix"/><feColorMatrix in="SourceAlpha" values="0 0 0 0 0 0 0 0 0 0 0 0 0 0 0 0 0 0 127 0" result="hardAlpha"/><feOffset dy="4"/><feGaussianBlur stdDeviation="2"/><feComposite in2="hardAlpha" operator="out"/><feColorMatrix values="0 0 0 0 0 0 0 0 0 0 0 0 0 0 0 0 0 0 0.25 0"/><feBlend in2="BackgroundImageFix" result="effect1_dropShadow_69_684"/><feBlend in="SourceGraphic" in2="effect1_dropShadow_69_684" result="shape"/></filter></defs></svg>