<svg width="25" height="25" fill="none" xmlns="http://www.w3.org/2000/svg"><path d="M14.375 5a1.875 1.875 0 1 0-3.75 0h3.75Zm-5 0a3.125 3.125 0 1 1 6.25 0h6.25a.625.625 0 1 1 0 1.25h-1.317l-.607 5.245a6.856 6.856 0 0 0-1.232-.22L19.3 6.25H5.701l1.475 12.788A2.5 2.5 0 0 0 9.66 21.25H12c.229.448.505.866.821 1.25H9.66a3.75 3.75 0 0 1-3.725-3.32L4.443 6.25H3.124a.625.625 0 0 1 0-1.25h6.25ZM23.75 18.125a5.625 5.625 0 1 1-11.25 0 5.625 5.625 0 0 1 11.25 0Zm-3.308-1.433a.626.626 0 1 0-.884-.885l-1.433 1.434-1.433-1.434a.626.626 0 1 0-.885.885l1.434 1.433-1.434 1.433a.627.627 0 0 0 .885.884l1.433-1.433 1.433 1.433a.627.627 0 0 0 .884-.884l-1.433-1.433 1.433-1.433Z" fill="#4E3536"/></svg>