<svg width="20" height="20" fill="none" xmlns="http://www.w3.org/2000/svg"><path d="M17.72 10.7h-3.18V9.07h3.18v1.63Zm0 .93h-3.18v1.63h3.18v-1.63Zm0-7.68h-3.18v1.63h3.18V3.95Zm0 2.56h-3.18v1.63h3.18V6.51Zm0 7.68h-3.18v1.62h3.18V14.2Zm2.2 3.2c-.1.49-.67.5-1.04.52H11.8V20H10.4L0 18.14V1.86L10.46 0h1.35v1.85h6.82c.39.02.8 0 1.14.23.24.34.21.78.23 1.17v12.11c-.02.68.05 1.37-.09 2.04ZM8.32 13.76l-1.89-3.9 1.83-3.81c-.51.02-1.03.06-1.54.1C6.35 7.08 5.9 8.01 5.6 9c-.28-.94-.65-1.83-.99-2.74l-1.5.09c.53 1.19 1.09 2.36 1.6 3.56-.6 1.16-1.17 2.34-1.75 3.51l1.5.05c.35-.93.79-1.82 1.1-2.76.27 1.01.74 1.95 1.13 2.92l1.64.1Zm10.59-10.8H11.8v1h1.82v1.63H11.8v.93h1.82v1.63H11.8v.93h1.82v1.63H11.8v.93h1.82v1.63H11.8v.93h1.82v1.62H11.8v1.08h7.1V2.96Z" fill="#4E3536"/></svg>