<svg width="1280" height="233" viewBox="0 0 1280 233" fill="none" xmlns="http://www.w3.org/2000/svg">
<path fill-rule="evenodd" clip-rule="evenodd" d="M0 88.9818L35.2 70.9795C71.4667 52.9773 141.867 16.9727 213.333 4.97119C284.8 -7.03033 355.2 4.97119 426.667 16.9727C498.133 28.9742 568.533 40.9757 640 58.978C711.467 76.9803 781.867 100.983 853.333 100.983C924.8 100.983 995.2 76.9803 1066.67 94.9826C1138.13 112.985 1208.53 172.992 1244.8 202.996L1280 233H1244.8C1208.53 233 1138.13 233 1066.67 233C995.2 233 924.8 233 853.333 233C781.867 233 711.467 233 640 233C568.533 233 498.133 233 426.667 233C355.2 233 284.8 233 213.333 233C141.867 233 71.4667 233 35.2 233H0V88.9818Z" fill="#FFD983"/>
</svg>
