<svg width="120" height="61" fill="none" xmlns="http://www.w3.org/2000/svg"><g filter="url(#a)" fill="#BE1931"><path d="M88.182 11.364c-.754 0-1.364-.61-1.364-1.364V8.182c0-.753.61-1.364 1.364-1.364.274-.003 2.727-.454 2.727-2.273 0-.909-.91-1.818-2.273-1.818-1.11 0-1.818.91-1.818 1.364a1.364 1.364 0 1 1-2.727 0C84.09 1.874 86.173 0 88.636 0c3.637 0 5 2.72 5 5 0 1.884-1.035 3.324-2.915 4.055-.409.16-.813.266-1.176.34V10c0 .753-.61 1.364-1.363 1.364ZM88.182 15a1.364 1.364 0 1 0 0-2.727 1.364 1.364 0 0 0 0 2.727ZM81.364 15a1.364 1.364 0 1 0 0-2.727 1.364 1.364 0 0 0 0 2.727ZM82.727 10A1.364 1.364 0 1 1 80 10V1.364a1.364 1.364 0 1 1 2.727 0V10Z"/></g><g filter="url(#b)" fill="#BE1931"><path d="M16.09 47.364c-.752 0-1.363-.61-1.363-1.364v-1.818c0-.753.61-1.364 1.364-1.364.274-.002 2.727-.454 2.727-2.273 0-.909-.909-1.818-2.273-1.818-1.11 0-1.818.91-1.818 1.364a1.364 1.364 0 1 1-2.727 0C12 37.874 14.082 36 16.546 36c3.636 0 5 2.72 5 5 0 1.884-1.035 3.324-2.915 4.054-.41.16-.814.267-1.177.34V46c0 .753-.61 1.364-1.363 1.364ZM16.09 51a1.364 1.364 0 1 0 0-2.727 1.364 1.364 0 0 0 0 2.727Z"/></g><g filter="url(#c)"><path d="M68.087 52.174a7.087 7.087 0 1 0 0-14.174 7.087 7.087 0 0 0 0 14.174Z" fill="#FFCB4C"/><path d="M66.638 46.762a.38.38 0 0 1-.13-.193.333.333 0 0 1 .246-.426c1.888-.426 3.159.568 3.213.61a.36.36 0 0 1 .072.503c-.12.15-.345.167-.505.04-.046-.034-1.052-.801-2.577-.457a.38.38 0 0 1-.319-.077ZM66.052 43.758c.49 0 .886-.496.886-1.107 0-.612-.396-1.108-.886-1.108-.489 0-.886.496-.886 1.108 0 .611.397 1.107.886 1.107ZM70.745 44.2c.489 0 .886-.495.886-1.106 0-.612-.397-1.108-.886-1.108-.49 0-.886.496-.886 1.108 0 .611.397 1.107.886 1.107Z" fill="#65471B"/><path d="M67.785 52.646s.528-.172.596-.564c.072-.405-.26-.486-.26-.486s.434-.087.489-.574c.05-.46-.36-.568-.36-.568s.405-.167.424-.642c.016-.4-.415-.595-.415-.595s2.1-.51 2.317-.56c.215-.05.55-.256.445-.705-.103-.45-.502-.466-.707-.419l-3.71.862-.6.14c-.226.053-.328-.046-.169-.214.212-.223.348-.47.395-.88.05-.432-.097-.965-.18-1.172-.157-.384-.42-.687-.724-.791-.474-.163-.81.133-.643.65.252.773.087 1.407-.347 1.79-1.02.9-1.496 1.54-1.18 2.907.346 1.49 1.825 2.45 3.315 2.105l1.314-.284Z" fill="#F19020"/><path d="M64.458 40.64a.386.386 0 0 1-.163-.166.333.333 0 0 1 .164-.464c1.779-.763 3.21-.018 3.27.014.18.097.253.312.163.481-.09.17-.309.228-.49.133-.05-.026-1.18-.597-2.616.02a.382.382 0 0 1-.328-.018Zm5.06 1.563a.385.385 0 0 1-.152-.176.334.334 0 0 1 .195-.452c1.827-.64 3.204.2 3.262.236.173.109.231.328.13.491-.101.163-.324.207-.497.1-.05-.03-1.136-.676-2.612-.159a.385.385 0 0 1-.327-.04Z" fill="#65471B"/></g><g filter="url(#d)"><path d="M57 7.5a7.5 7.5 0 1 1-15 0 7.5 7.5 0 0 1 15 0Z" fill="#FFCB4C"/><path d="M47.073 7.673c.61 0 1.103-.691 1.103-1.544 0-.853-.494-1.544-1.103-1.544s-1.103.691-1.103 1.544c0 .853.494 1.544 1.103 1.544Z" fill="#65471B"/><path d="M52.367 8.823a2.867 2.867 0 1 0 0-5.735 2.867 2.867 0 0 0 0 5.735Z" fill="#F4F7F9"/><path d="M48.177 4.144a.44.44 0 0 1-.353-.176c-.413-.55-.845-.845-1.285-.877-.579-.04-1.051.395-1.139.483a.44.44 0 1 1-.624-.624c.19-.19.887-.807 1.826-.739.706.05 1.354.463 1.928 1.227a.441.441 0 0 1-.353.706Z" fill="#65471B"/><path d="M55.677 15a.441.441 0 0 1-.442-.441V6.177a.441.441 0 1 1 .883 0v8.382c0 .244-.198.441-.441.441Z" fill="#292F33"/><path d="M55.676 5.294c-.022 0-.043.005-.065.007a3.314 3.314 0 0 0-3.244-2.654 3.312 3.312 0 0 0-3.308 3.309 3.312 3.312 0 0 0 3.308 3.309 3.312 3.312 0 0 0 3.124-2.227.882.882 0 1 0 .186-1.744Zm-3.309 3.089a2.429 2.429 0 0 1-2.426-2.427 2.43 2.43 0 0 1 2.426-2.427 2.43 2.43 0 0 1 2.427 2.427 2.43 2.43 0 0 1-2.427 2.427Z" fill="#67757F"/><path d="M50.823 11.912a.44.44 0 0 1-.197-.047c-.758-.38-1.495-.38-2.253 0a.441.441 0 1 1-.394-.79c1.008-.504 2.032-.504 3.041 0a.442.442 0 0 1-.197.837Z" fill="#65471B"/><path d="M53.687 3.921a2.427 2.427 0 0 0-3.355 3.355l3.355-3.355Zm-2.355 4.227A2.427 2.427 0 0 0 54.56 4.92l-3.227 3.228Z" fill="#BDDDF4"/></g><g filter="url(#e)"><path d="M102.4 35.8a3.6 3.6 0 1 0 0 7.2 3.6 3.6 0 0 0 0-7.2Zm0 6a2.4 2.4 0 1 1 0-4.8 2.4 2.4 0 0 1 0 4.8Z" fill="#3B88C3"/><path d="M95.07 32.814v.012c-.6.132-1.07 1.137-1.07 2.374s.47 2.242 1.07 2.374v.012l17.22 4.783V28.04l-17.22 4.775Z" fill="#55ACEE"/><path d="M112.6 42.4c1.657 0 3-3.224 3-7.2 0-3.977-1.343-7.2-3-7.2s-3 3.224-3 7.2 1.343 7.2 3 7.2Z" fill="#269"/></g><g filter="url(#f)"><path d="M19 16.333c0 .92-.746 1.667-1.667 1.667H5.667C4.747 18 4 17.254 4 16.333V4.667C4 3.747 4.746 3 5.667 3h11.666C18.253 3 19 3.746 19 4.667v11.666Z" fill="#DD2E44"/><path d="M8.068 8.216c0 .325-.217.617-.559.617-.341 0-.608-.25-1.108-.25-.359 0-.684.191-.684.541 0 .858 2.784.308 2.784 2.459 0 1.192-.984 1.934-2.134 1.934-.642 0-2.025-.15-2.025-.933 0-.325.217-.592.558-.592.392 0 .859.325 1.4.325.55 0 .851-.309.851-.717 0-.984-2.784-.392-2.784-2.326 0-1.167.959-1.892 2.067-1.892.467 0 1.634.175 1.634.834Zm.565 2.234c0-1.734 1.168-3.068 2.868-3.068 1.675 0 2.867 1.375 2.867 3.068 0 1.725-1.158 3.067-2.867 3.067-1.692 0-2.868-1.342-2.868-3.067Zm4.435 0c0-1.01-.525-1.918-1.567-1.918-1.042 0-1.567.909-1.567 1.918 0 1.016.508 1.917 1.567 1.917s1.567-.9 1.567-1.917Zm5.158-2.234c0 .325-.217.617-.559.617-.342 0-.608-.25-1.108-.25-.358 0-.684.191-.684.541 0 .858 2.784.308 2.784 2.459 0 1.192-.983 1.934-2.133 1.934-.642 0-2.026-.15-2.026-.933 0-.325.217-.592.56-.592.39 0 .858.325 1.399.325.55 0 .85-.309.85-.717 0-.984-2.784-.392-2.784-2.326 0-1.167.959-1.892 2.067-1.892.467 0 1.634.175 1.634.834Z" fill="#fff"/></g><defs><filter id="a" x="76" y="0" width="21.636" height="23" filterUnits="userSpaceOnUse" color-interpolation-filters="sRGB"><feFlood flood-opacity="0" result="BackgroundImageFix"/><feColorMatrix in="SourceAlpha" values="0 0 0 0 0 0 0 0 0 0 0 0 0 0 0 0 0 0 127 0" result="hardAlpha"/><feOffset dy="4"/><feGaussianBlur stdDeviation="2"/><feComposite in2="hardAlpha" operator="out"/><feColorMatrix values="0 0 0 0 0 0 0 0 0 0 0 0 0 0 0 0 0 0 0.25 0"/><feBlend in2="BackgroundImageFix" result="effect1_dropShadow_69_1216"/><feBlend in="SourceGraphic" in2="effect1_dropShadow_69_1216" result="shape"/></filter><filter id="b" x="8" y="36" width="17.545" height="23" filterUnits="userSpaceOnUse" color-interpolation-filters="sRGB"><feFlood flood-opacity="0" result="BackgroundImageFix"/><feColorMatrix in="SourceAlpha" values="0 0 0 0 0 0 0 0 0 0 0 0 0 0 0 0 0 0 127 0" result="hardAlpha"/><feOffset dy="4"/><feGaussianBlur stdDeviation="2"/><feComposite in2="hardAlpha" operator="out"/><feColorMatrix values="0 0 0 0 0 0 0 0 0 0 0 0 0 0 0 0 0 0 0.25 0"/><feBlend in2="BackgroundImageFix" result="effect1_dropShadow_69_1216"/><feBlend in="SourceGraphic" in2="effect1_dropShadow_69_1216" result="shape"/></filter><filter id="c" x="57" y="38" width="22.174" height="23" filterUnits="userSpaceOnUse" color-interpolation-filters="sRGB"><feFlood flood-opacity="0" result="BackgroundImageFix"/><feColorMatrix in="SourceAlpha" values="0 0 0 0 0 0 0 0 0 0 0 0 0 0 0 0 0 0 127 0" result="hardAlpha"/><feOffset dy="4"/><feGaussianBlur stdDeviation="2"/><feComposite in2="hardAlpha" operator="out"/><feColorMatrix values="0 0 0 0 0 0 0 0 0 0 0 0 0 0 0 0 0 0 0.25 0"/><feBlend in2="BackgroundImageFix" result="effect1_dropShadow_69_1216"/><feBlend in="SourceGraphic" in2="effect1_dropShadow_69_1216" result="shape"/></filter><filter id="d" x="38" y="0" width="23" height="23" filterUnits="userSpaceOnUse" color-interpolation-filters="sRGB"><feFlood flood-opacity="0" result="BackgroundImageFix"/><feColorMatrix in="SourceAlpha" values="0 0 0 0 0 0 0 0 0 0 0 0 0 0 0 0 0 0 127 0" result="hardAlpha"/><feOffset dy="4"/><feGaussianBlur stdDeviation="2"/><feComposite in2="hardAlpha" operator="out"/><feColorMatrix values="0 0 0 0 0 0 0 0 0 0 0 0 0 0 0 0 0 0 0.25 0"/><feBlend in2="BackgroundImageFix" result="effect1_dropShadow_69_1216"/><feBlend in="SourceGraphic" in2="effect1_dropShadow_69_1216" result="shape"/></filter><filter id="e" x="90" y="28" width="29.6" height="23" filterUnits="userSpaceOnUse" color-interpolation-filters="sRGB"><feFlood flood-opacity="0" result="BackgroundImageFix"/><feColorMatrix in="SourceAlpha" values="0 0 0 0 0 0 0 0 0 0 0 0 0 0 0 0 0 0 127 0" result="hardAlpha"/><feOffset dy="4"/><feGaussianBlur stdDeviation="2"/><feComposite in2="hardAlpha" operator="out"/><feColorMatrix values="0 0 0 0 0 0 0 0 0 0 0 0 0 0 0 0 0 0 0.25 0"/><feBlend in2="BackgroundImageFix" result="effect1_dropShadow_69_1216"/><feBlend in="SourceGraphic" in2="effect1_dropShadow_69_1216" result="shape"/></filter><filter id="f" x="0" y="3" width="23" height="23" filterUnits="userSpaceOnUse" color-interpolation-filters="sRGB"><feFlood flood-opacity="0" result="BackgroundImageFix"/><feColorMatrix in="SourceAlpha" values="0 0 0 0 0 0 0 0 0 0 0 0 0 0 0 0 0 0 127 0" result="hardAlpha"/><feOffset dy="4"/><feGaussianBlur stdDeviation="2"/><feComposite in2="hardAlpha" operator="out"/><feColorMatrix values="0 0 0 0 0 0 0 0 0 0 0 0 0 0 0 0 0 0 0.25 0"/><feBlend in2="BackgroundImageFix" result="effect1_dropShadow_69_1216"/><feBlend in="SourceGraphic" in2="effect1_dropShadow_69_1216" result="shape"/></filter></defs></svg>