<svg width="16" height="24" fill="none" xmlns="http://www.w3.org/2000/svg"><path d="M16 21.67C16 22.96 12.42 24 8 24s-8-1.04-8-2.33c0-1.3 3.58-2.34 8-2.34s8 1.05 8 2.34Z" fill="#99AAB5"/><path d="M0 21h16v.67H0V21Z" fill="#99AAB5"/><path d="M16 21c0 1.29-3.58 2.33-8 2.33S0 22.3 0 21s3.58-2.33 8-2.33 8 1.04 8 2.33Z" fill="#E6E7E8"/><path d="M15.33 20.67c0 1.1-3.28 2-7.33 2-4.05 0-7.33-.9-7.33-2s3.28-2 7.33-2c4.05 0 7.33.9 7.33 2Z" fill="#5C913B"/><path d="M.67 5.33h14.66v15.34H.67V5.33Z" fill="#5C913B"/><path d="M15.33 15.33c0 1.3-3.28 2.34-7.33 2.34-4.05 0-7.33-1.05-7.33-2.34C.67 14.04 3.95 13 8 13c4.05 0 7.33 1.04 7.33 2.33Z" fill="#A6D388"/><path d="M.67 6.67h14.66v8.66H.67V6.67Z" fill="#A6D388"/><path d="M15.33 9.33c0 1.3-3.28 2.34-7.33 2.34-4.05 0-7.33-1.05-7.33-2.34C.67 8.04 3.95 7 8 7c4.05 0 7.33 1.04 7.33 2.33Z" fill="#5C913B"/><path d="M.67 2.67h14.66v6.66H.67V2.67Z" fill="#5C913B"/><path d="M16 3c0 1.29-3.58 2.33-8 2.33S0 4.3 0 3 3.58.67 8 .67 16 1.7 16 3Z" fill="#99AAB5"/><path d="M0 2.33h16V3H0v-.67Z" fill="#99AAB5"/><path d="M16 2.33c0 1.3-3.58 2.34-8 2.34S0 3.62 0 2.33C0 1.04 3.58 0 8 0s8 1.04 8 2.33Z" fill="#E6E7E8"/><path d="M14.83 2.33C14.83 3.25 11.77 4 8 4s-6.83-.75-6.83-1.67C1.17 1.41 4.23.67 8 .67s6.83.74 6.83 1.66Z" fill="#CCD6DD"/><path d="M14.17 2.33c0 .74-2.76 1.34-6.17 1.34-3.4 0-6.17-.6-6.17-1.34C1.83 1.6 4.6 1 8 1c3.4 0 6.17.6 6.17 1.33Z" fill="#E6E7E8"/><path d="M12 2.33c0 .46-1.8.84-4 .84s-4-.38-4-.84c0-.46 1.8-.83 4-.83s4 .37 4 .83Z" fill="#CCD6DD"/><path d="M8 2.83c1.75 0 3.17-.22 3.17-.5 0-.27-1.42-.5-3.17-.5s-3.17.23-3.17.5c0 .28 1.42.5 3.17.5Z" fill="#E6E7E8"/><path d="M12.67 14c0 2.76-2.1 5-4.67 5-2.58 0-4.67-2.24-4.67-5S5.43 9 8 9c2.58 0 4.67 2.24 4.67 5Z" fill="#FFCC4D"/><path d="M11.33 14c0 2.1-1.49 3.81-3.33 3.81S4.67 16.11 4.67 14c0-2.1 1.49-3.8 3.33-3.8s3.33 1.7 3.33 3.8Z" fill="#FFAC33"/></svg>