<svg width="186" height="69" viewBox="0 0 186 69" fill="none" xmlns="http://www.w3.org/2000/svg">
<path d="M101.452 13.2473C116.353 11.7374 131.933 9.5248 144.782 9.80956C157.747 10.0969 167.463 4.65077 173.835 7.34328C180.038 9.96378 185.421 19.5502 185.5 23.3433C185.582 27.2868 181.389 36.8905 173.835 41.3434C166.147 45.8756 177.712 64.5852 164 68.3433C150.123 72.1466 109.852 56.9621 94.0696 59.2322C77.5144 61.6136 62.5 62.9846 48 53.8434C34.4214 53.2812 29.3013 66.9099 23 63.8434C17.0878 60.9662 1.02173 53.6163 0.500025 49.7153C-0.0557893 45.5593 8.873 28.1127 16.4434 23.3433C24.2476 18.4266 0.556946 4.97161 16.4434 1.34338C31.7615 -2.15502 85.2673 14.8874 101.452 13.2473Z" fill="#84BB9F"/>
</svg>
