<svg width="186" height="59" viewBox="0 0 186 59" fill="none" xmlns="http://www.w3.org/2000/svg">
<path d="M101.452 7.24741C116.353 5.73745 131.933 3.52486 144.782 3.80962C157.747 4.09693 167.463 -1.34917 173.835 1.34334C180.038 3.96384 185.421 13.5502 185.5 17.3434C185.582 21.2869 181.389 26.9176 173.835 31.3704C166.147 35.9027 152.263 39.9572 138.551 43.7153C124.674 47.5186 109.852 50.9622 94.0696 53.2323C77.5144 55.6136 60.0034 57.5519 46.3016 56.9846C32.7229 56.4224 22.7447 60.0511 16.4434 56.9846C10.5312 54.1075 1.0217 47.6164 0.499997 43.7154C-0.0558162 39.5593 8.87296 31.4315 16.4434 26.6621C24.2476 21.7454 37.5178 16.6977 53.4042 13.0695C68.7223 9.57105 85.2673 8.88751 101.452 7.24741Z" fill="#94B1EC"/>
</svg>
