<svg width="163" height="71" viewBox="0 0 163 71" fill="none" xmlns="http://www.w3.org/2000/svg">
<path d="M38 12C50 3.5 121.5 1.00001 133.782 9.80955C146.747 10.0969 151.627 -1.6925 158 1.00001C164.202 3.62051 162.756 19.5502 162.835 23.3433C162.918 27.2868 160.553 41.5471 153 46C145.312 50.5322 166.712 64.5852 153 68.3433C139.123 72.1467 141.782 66.0733 126 68.3434C109.445 70.7247 94 72.9846 79.5 63.8434C65.9213 63.2812 18.3013 66.9099 12 63.8434C6.08782 60.9662 2.02174 54.4009 1.50003 50.4999C0.944218 46.3439 -2.12702 28.1127 5.4434 23.3433C13.2476 18.4266 4.61355 4.62824 20.5 1.00001C35.8181 -2.49839 21.8152 13.6401 38 12Z" fill="#FFCC4D"/>
</svg>
