<svg width="24" height="24" fill="none" xmlns="http://www.w3.org/2000/svg"><path d="M1.66 22.34c1.6 1.6 3.4 2.42 5.12.7 1.23-1.23.92-3.52-.7-5.13-1.6-1.6-3.9-1.92-5.12-.7-1.72 1.73-.9 3.52.7 5.13Zm4.37-4.37c1.2 1.2 1.44 2.93.52 3.85-1.3 1.29-2.64.68-3.85-.52-1.2-1.2-1.81-2.55-.52-3.85.92-.92 2.64-.68 3.85.52ZM22.34 1.66c-1.6-1.61-3.4-2.42-5.12-.7-1.23 1.23-.92 3.52.7 5.13 1.6 1.6 3.9 1.92 5.12.7 1.72-1.73.9-3.53-.7-5.13Zm-4.37 4.37c-1.2-1.2-1.44-2.93-.52-3.85 1.3-1.29 2.64-.68 3.85.52 1.2 1.2 1.81 2.56.52 3.85-.92.92-2.64.68-3.85-.52Z" fill="#292F33"/><path d="M12 23.33A11.33 11.33 0 1 0 12 .67a11.33 11.33 0 0 0 0 22.66Z" fill="#292F33"/><path d="M21.07 12a9.07 9.07 0 1 1-18.14 0 9.07 9.07 0 0 1 18.14 0Z" fill="#FFAC33"/><path d="m12.96 7.11-1.69-1.7a.75.75 0 1 0-1.31-.34.75.75 0 0 0-.66 1.27c.28.28.71.29 1 .04l1.7 1.7.96-.97Z" fill="#FFE8B6"/><path d="M18.45 13.56c.48-.48 1.7-2.55 0-4.24-1.17-1.18-2.11-1.1-3.88-1.54a6.49 6.49 0 0 1-1.9-1.36c-.24.25-.16 1.13-.16 1.13s-1.05.08-1.29.32c.24.24 1.36 1.3 1.56 1.8.52 1.67.46 2.52 1.64 3.7 1.93 1.92 3.54.67 4.03.19Z" fill="#C1694F"/><path d="M6.22 11c0 1.29 2.07 2.33.78 2.33a2.33 2.33 0 0 1 0-4.66c1.29 0-.78 1.04-.78 2.33Zm5.8 6.33c1.06.51 2.75-.78 2.23.29a2.14 2.14 0 1 1-3.86-1.87c.52-1.07.56 1.06 1.62 1.58Z" fill="#77B255"/><path d="M10 12.67A1.33 1.33 0 1 0 10 10a1.33 1.33 0 0 0 0 2.67ZM16 16.67a.67.67 0 1 0 0-1.34.67.67 0 0 0 0 1.34ZM7.33 16a.67.67 0 1 0 0-1.33.67.67 0 0 0 0 1.33Z" fill="#F4900C"/></svg>