<svg width="250" height="163" fill="none" xmlns="http://www.w3.org/2000/svg"><path d="m0 78.343 250-77.5v77.5l-250 84v-84z" fill="#EC7068"/><path d="M80.374 91.487 76.81 80.869l4.945-1.66c1.233-.414 2.274-.499 3.121-.254s1.418.807 1.714 1.686c.291.87.195 1.656-.29 2.359-.487.692-1.267 1.218-2.339 1.578l.075-.734c1.193-.4 2.198-.473 3.015-.218.817.254 1.376.832 1.678 1.732.312.93.204 1.782-.324 2.555-.52.76-1.454 1.366-2.799 1.818l-5.233 1.756zm1.831-2.64 2.7-.906c.567-.19.959-.446 1.178-.767.218-.32.25-.714.093-1.179-.149-.445-.406-.724-.77-.838-.368-.124-.836-.091-1.402.099l-2.7.906.901 2.685zm-1.476-4.399 2.29-.769c.536-.18.905-.421 1.107-.725.198-.314.226-.684.084-1.109-.143-.424-.386-.697-.73-.818-.348-.13-.79-.106-1.326.074l-2.29.768.865 2.579zM96.344 86.263c-.688.23-1.34.28-1.958.15-.618-.13-1.177-.454-1.677-.973-.493-.532-.9-1.273-1.219-2.224-.322-.96-.45-1.795-.384-2.503.066-.709.306-1.301.72-1.778.414-.476.98-.835 1.698-1.076.768-.258 1.515-.311 2.24-.161.733.137 1.381.46 1.946.967.574.505 1.004 1.182 1.289 2.032.288.86.356 1.664.202 2.413a3.938 3.938 0 0 1-.968 1.945c-.491.547-1.121.95-1.89 1.208zm-3.877 4.44L88.74 79.599l2.26-.758.56 1.668.769 2.443.96 2.36 1.543 4.597-2.366.794zm2.815-6.245c.395-.132.713-.34.955-.624.253-.287.414-.628.484-1.023.077-.408.037-.845-.119-1.31-.16-.475-.391-.848-.695-1.117a2.064 2.064 0 0 0-1.003-.524 2.103 2.103 0 0 0-1.138.078 2.189 2.189 0 0 0-.97.63 2.064 2.064 0 0 0-.484 1.023c-.07.394-.026.83.134 1.305.156.465.383.839.68 1.122.294.272.628.447 1.003.524.374.077.759.049 1.153-.084zM106.057 83.003c-.931.312-1.811.405-2.641.279-.82-.13-1.527-.444-2.122-.942-.598-.508-1.033-1.167-1.304-1.976-.275-.819-.33-1.605-.167-2.357a4.232 4.232 0 0 1 1.064-2.011c.535-.585 1.217-1.016 2.046-1.294.799-.269 1.575-.337 2.327-.207.759.116 1.433.43 2.021.942.584.501 1.024 1.192 1.32 2.071.03.091.061.2.091.324.028.115.053.224.077.329l-6.629 2.224-.463-1.38 5.385-1.807-.773.715c-.142-.425-.352-.765-.629-1.021a1.928 1.928 0 0 0-.958-.489 2.134 2.134 0 0 0-1.153.083 2.22 2.22 0 0 0-.985.635 1.901 1.901 0 0 0-.464.982c-.067.372-.027.775.119 1.21l.122.363c.149.445.378.808.685 1.087.315.266.679.43 1.094.493.422.05.876-.006 1.361-.17.435-.145.792-.338 1.071-.578.29-.244.527-.543.712-.897l1.717.942a3.93 3.93 0 0 1-1.08 1.46c-.491.412-1.106.742-1.844.99zM111.774 80.95l-2.739-8.161 2.472-.83 4.953 4.549-.986.33 1.418-6.686 2.215-.743 2.769 8.15-2.139.718-1.924-5.733.445.12-1.228 5.644-1.001.336-4.455-3.922.404-.254 1.934 5.764-2.138.718zM128.173 75.582c-.931.312-1.811.405-2.641.278-.82-.13-1.527-.444-2.122-.942-.598-.508-1.033-1.166-1.304-1.975-.275-.82-.331-1.605-.167-2.358a4.236 4.236 0 0 1 1.064-2.01c.535-.585 1.217-1.017 2.046-1.295.799-.268 1.575-.337 2.327-.207.759.116 1.433.43 2.021.942.585.501 1.024 1.192 1.32 2.072.03.09.061.199.091.323.028.115.053.225.077.33l-6.629 2.224-.463-1.38 5.385-1.808-.773.715c-.142-.425-.352-.765-.629-1.02a1.929 1.929 0 0 0-.957-.49 2.137 2.137 0 0 0-1.154.084 2.22 2.22 0 0 0-.985.634 1.91 1.91 0 0 0-.464.983c-.066.37-.027.774.119 1.209l.122.364c.15.445.378.807.685 1.086.315.266.679.43 1.094.494.422.05.876-.007 1.361-.17.435-.146.792-.339 1.072-.579.289-.243.526-.542.711-.897l1.717.943a3.93 3.93 0 0 1-1.08 1.46c-.491.412-1.106.742-1.844.99zM133.89 73.528l-2.739-8.16 2.351-.79 1.069 3.186 3.55-1.191-1.069-3.186 2.366-.794 2.739 8.161-2.367.794-1.023-3.049-3.549 1.191 1.023 3.05-2.351.788zM144.422 69.994l-2.739-8.16 2.351-.79 1.069 3.186 3.55-1.192-1.069-3.185 2.366-.794 2.739 8.16-2.367.795-1.023-3.05-3.549 1.192 1.023 3.049-2.351.789zM158.817 65.298c-.869.292-1.704.37-2.504.233a4.481 4.481 0 0 1-2.091-.952c-.598-.508-1.033-1.167-1.305-1.976-.275-.819-.325-1.607-.151-2.363.18-.769.545-1.443 1.094-2.02.555-.592 1.268-1.033 2.137-1.325.86-.289 1.689-.365 2.489-.228a4.22 4.22 0 0 1 2.087.937c.594.498 1.031 1.162 1.309 1.99.271.81.322 1.597.151 2.363a4.325 4.325 0 0 1-1.093 2.021c-.556.592-1.263 1.032-2.123 1.32zm-.651-1.942c.394-.132.717-.342.97-.629.252-.287.413-.628.484-1.023.066-.405.021-.84-.135-1.305-.159-.475-.386-.85-.68-1.122a2.063 2.063 0 0 0-1.003-.524 2.188 2.188 0 0 0-1.153.083 2.184 2.184 0 0 0-.97.63 2.17 2.17 0 0 0-.499 1.028c-.07.395-.026.83.134 1.305.156.465.383.839.68 1.122.304.269.644.442 1.018.519.375.077.759.049 1.154-.084zM63.18 116.445a5.752 5.752 0 0 1-1.916.323 4.03 4.03 0 0 1-1.737-.447c-.537-.292-1.027-.73-1.47-1.312-.433-.586-.802-1.335-1.107-2.245a9.221 9.221 0 0 1-.429-1.83 6.061 6.061 0 0 1 .012-1.625 4.516 4.516 0 0 1 .457-1.453c.239-.462.554-.883.944-1.261a7.056 7.056 0 0 1 1.43-1.071l3.623-2.077 1.001 1.926-3.199 1.833c-.189.108-.403.242-.642.401a3.832 3.832 0 0 0-.677.548 2.741 2.741 0 0 0-.524.8c-.135.304-.203.67-.206 1.099-.005.418.085.905.272 1.461a4.1 4.1 0 0 0 .147.39c.05.084.098.175.142.273.054.094.117.247.188.46l-1.007-.489c.063-.55.21-1.049.442-1.499.242-.452.561-.841.959-1.165.404-.338.89-.602 1.455-.792.769-.258 1.494-.327 2.176-.207a3.467 3.467 0 0 1 1.797.831c.51.448.885 1.025 1.122 1.733.258.769.293 1.511.106 2.226-.191.706-.576 1.335-1.155 1.89-.569.551-1.303.977-2.203 1.279zm-.494-1.876c.394-.132.714-.335.96-.609.242-.284.395-.599.459-.947.07-.361.042-.729-.084-1.103a1.93 1.93 0 0 0-.583-.884 1.802 1.802 0 0 0-.922-.433 2.342 2.342 0 0 0-1.143.113 2.413 2.413 0 0 0-.98.599 1.82 1.82 0 0 0-.515.882c-.08.33-.06.678.063 1.042.125.374.327.689.604.945.284.242.608.403.972.484.375.076.764.047 1.169-.089zM73.306 112.98c-.93.312-1.81.405-2.64.279-.82-.13-1.528-.444-2.123-.942-.598-.508-1.033-1.167-1.304-1.976-.275-.819-.33-1.605-.167-2.357a4.228 4.228 0 0 1 1.064-2.011c.535-.585 1.217-1.016 2.046-1.295.8-.268 1.575-.337 2.328-.207.759.117 1.432.431 2.02.942.585.502 1.025 1.192 1.32 2.072.03.091.061.199.092.324l.076.329-6.629 2.224-.463-1.38 5.385-1.807-.773.715c-.142-.425-.352-.765-.629-1.021a1.928 1.928 0 0 0-.957-.489 2.134 2.134 0 0 0-1.154.083 2.217 2.217 0 0 0-.985.635c-.246.273-.4.601-.464.982-.066.371-.027.774.12 1.209l.121.364c.15.445.378.807.686 1.087.314.265.678.43 1.094.493.421.05.875-.007 1.36-.169.435-.146.792-.339 1.072-.579.29-.244.526-.543.711-.897l1.717.942a3.943 3.943 0 0 1-1.08 1.46c-.491.412-1.106.742-1.844.99zM81.746 110.182c.768-.258 1.422-.59 1.96-.996.546-.419.931-.881 1.156-1.384.232-.516.26-1.037.083-1.563-.207-.617-.627-1.016-1.262-1.197-.638-.191-1.407-.135-2.307.167l.097.49a3.81 3.81 0 0 0 1.31-.726c.353-.321.593-.677.72-1.069.138-.395.14-.789.008-1.184a1.782 1.782 0 0 0-.953-1.081c-.46-.228-1.023-.332-1.69-.31-.668.022-1.378.17-2.13.444a7.416 7.416 0 0 0-1.49.737c-.483.308-.954.663-1.415 1.065l1.126 1.445c.394-.334.793-.62 1.197-.857.401-.247.804-.439 1.208-.574.354-.119.66-.182.916-.189.253-.018.46.014.622.094a.633.633 0 0 1 .33.379.68.68 0 0 1-.01.476c-.053.142-.166.275-.337.4a2.449 2.449 0 0 1-.668.325l-1.471.494.494 1.472 1.668-.56c.425-.143.772-.181 1.042-.114a.68.68 0 0 1 .533.48.741.741 0 0 1-.04.587c-.094.189-.264.37-.51.542-.239.159-.54.3-.905.422a7.865 7.865 0 0 1-1.552.352 6.584 6.584 0 0 1-1.508-.017l-.082 1.867a7.537 7.537 0 0 0 1.912.017 9.676 9.676 0 0 0 1.948-.434zM95.61 105.495c-.87.292-1.704.37-2.504.233a4.49 4.49 0 0 1-2.091-.952c-.598-.508-1.033-1.167-1.304-1.976-.275-.819-.326-1.607-.152-2.362a4.32 4.32 0 0 1 1.094-2.022c.555-.59 1.268-1.032 2.138-1.324.86-.289 1.689-.365 2.489-.228a4.216 4.216 0 0 1 2.086.937c.595.498 1.031 1.162 1.31 1.99.27.81.321 1.597.15 2.363a4.33 4.33 0 0 1-1.093 2.021c-.555.592-1.263 1.032-2.122 1.32zm-.651-1.941c.394-.133.718-.343.97-.63.253-.287.414-.628.484-1.023.067-.405.022-.84-.134-1.305-.16-.475-.387-.85-.68-1.122a2.064 2.064 0 0 0-1.003-.524 2.19 2.19 0 0 0-1.154.083 2.19 2.19 0 0 0-.97.63 2.18 2.18 0 0 0-.499 1.028c-.07.394-.025.83.134 1.305.156.465.383.839.68 1.122.305.269.644.442 1.019.519a2.19 2.19 0 0 0 1.153-.083zM101.672 103.326l-2.738-8.16 6.537-2.195.652 1.942-4.718 1.583.358-.694 2.26 6.735-2.351.789zM114.313 99.219c-.688.23-1.34.281-1.958.15-.617-.13-1.176-.454-1.676-.972-.494-.532-.9-1.274-1.219-2.224-.323-.96-.451-1.796-.385-2.504.066-.709.306-1.3.72-1.777.414-.477.98-.835 1.698-1.076.769-.258 1.516-.312 2.241-.162.732.137 1.381.46 1.945.968.575.504 1.004 1.182 1.289 2.031.289.86.356 1.664.203 2.413a3.946 3.946 0 0 1-.968 1.945c-.491.547-1.121.95-1.89 1.208zm-3.877 4.44-3.726-11.103 2.26-.759.56 1.669.769 2.442.961 2.36 1.543 4.597-2.367.794zm2.816-6.244c.394-.133.713-.34.955-.624.252-.288.414-.629.484-1.023.076-.409.037-.846-.119-1.31-.16-.476-.392-.848-.696-1.117a2.061 2.061 0 0 0-1.003-.525 2.103 2.103 0 0 0-1.138.079 2.188 2.188 0 0 0-.97.629 2.067 2.067 0 0 0-.484 1.023c-.07.395-.025.83.134 1.305.157.465.383.84.681 1.122.294.273.628.447 1.003.524.374.077.759.05 1.153-.083zM124.747 95.583l-.534-1.593-.269-.298-.957-2.852c-.17-.505-.459-.847-.867-1.025-.399-.181-.917-.165-1.554.049-.434.145-.84.36-1.218.644-.37.271-.663.572-.878.903l-1.405-1.368c.34-.463.795-.886 1.364-1.268a7.591 7.591 0 0 1 1.825-.9c1.244-.417 2.308-.448 3.192-.092.885.356 1.536 1.156 1.953 2.4l1.563 4.656-2.215.744zm-2.447.956c-.637.214-1.219.29-1.745.231-.53-.07-.979-.251-1.347-.544a2.387 2.387 0 0 1-.786-1.137c-.163-.485-.19-.949-.079-1.39.12-.446.405-.857.852-1.232.445-.385 1.082-.717 1.911-.996l2.169-.728.463 1.38-1.911.642c-.556.187-.91.407-1.061.66a.928.928 0 0 0-.074.785.923.923 0 0 0 .593.61c.3.091.658.067 1.072-.072.395-.133.718-.343.97-.63.249-.297.384-.652.403-1.063l.731.97a2.229 2.229 0 0 1-.539 1.514c-.363.425-.904.759-1.622 1zM129.017 94.15l-2.738-8.161 2.351-.79 1.069 3.186 3.549-1.19-1.069-3.186 2.367-.794 2.738 8.16-2.366.794-1.023-3.048-3.55 1.19 1.023 3.05-2.351.789zM139.549 90.615l-2.738-8.16 2.351-.79 1.629 4.854 2.345-6.187 2.169-.728 2.739 8.16-2.351.79-1.629-4.854-2.33 6.182-2.185.733zM154.412 82.151a5.425 5.425 0 0 1-.959.812 5.324 5.324 0 0 1-1.279.614c-1.072.36-1.978.394-2.717.102-.743-.302-1.294-.99-1.654-2.061l-.86-2.563 2.366-.795.81 2.412c.169.506.423.826.761.96.334.124.739.106 1.214-.053.344-.115.659-.266.945-.452.296-.19.566-.41.808-.66l.565 1.684zm.882 3.18-2.739-8.16 2.367-.794 2.738 8.16-2.366.795zM163.963 82.558c-.931.312-1.811.405-2.641.278-.82-.13-1.527-.443-2.122-.941-.598-.508-1.033-1.167-1.304-1.976-.275-.82-.331-1.605-.167-2.358a4.236 4.236 0 0 1 1.064-2.01c.535-.585 1.217-1.017 2.046-1.295.799-.268 1.575-.337 2.327-.207.759.117 1.433.43 2.021.942.584.502 1.024 1.192 1.32 2.072.03.091.061.199.091.324l.077.328-6.629 2.225-.463-1.38 5.385-1.808-.773.715c-.142-.424-.352-.764-.629-1.02a1.932 1.932 0 0 0-.958-.49 2.133 2.133 0 0 0-1.153.084 2.214 2.214 0 0 0-.985.635 1.9 1.9 0 0 0-.464.982c-.067.371-.027.774.119 1.21l.122.363c.149.445.378.807.685 1.087.315.265.679.43 1.094.493.422.05.876-.007 1.361-.17.435-.145.792-.338 1.071-.579.29-.243.527-.542.712-.897l1.717.943a3.94 3.94 0 0 1-1.08 1.46c-.491.412-1.106.742-1.844.99zM169.679 80.504l-2.738-8.16 2.351-.79 1.069 3.186 3.55-1.191-1.069-3.185 2.366-.794 2.738 8.16-2.366.794-1.023-3.049-3.549 1.192 1.023 3.049-2.352.788zM180.212 76.97l-2.739-8.16 2.351-.79 1.629 4.854 2.345-6.187 2.17-.728 2.738 8.16-2.351.79-1.629-4.854-2.33 6.182-2.184.733zM190.981 73.356l-2.739-8.16 2.351-.79 1.629 4.854 2.346-6.187 2.169-.728 2.738 8.16-2.351.79-1.629-4.854-2.33 6.182-2.184.733zm1.062-10.415c-.89.299-1.622.33-2.196.096-.577-.245-1.003-.76-1.278-1.546l1.547-.519c.125.34.313.581.563.722.25.142.562.15.936.024.364-.122.608-.317.733-.584.134-.27.144-.577.028-.92l1.578-.53c.264.789.235 1.457-.087 2.004-.326.537-.934.955-1.824 1.253z" fill="#FFCC4D"/></svg>