<svg width="250" height="163" fill="none" xmlns="http://www.w3.org/2000/svg"><path d="m0 78.343 250-77.5v77.5l-250 84v-84z" fill="#D9D9D9"/><path d="m72.564 103.601-3.563-10.618 4.945-1.66c1.234-.414 2.274-.499 3.121-.254.848.244 1.419.807 1.714 1.686.292.87.195 1.656-.289 2.359-.488.692-1.267 1.218-2.34 1.578l.075-.734c1.193-.4 2.198-.473 3.015-.218.817.254 1.376.832 1.678 1.732.313.93.205 1.782-.323 2.555-.521.76-1.455 1.366-2.8 1.817l-5.233 1.757zm1.832-2.64 2.7-.906c.566-.19.958-.446 1.177-.767.219-.32.25-.713.094-1.179-.15-.445-.407-.724-.771-.838-.368-.124-.835-.091-1.401.099l-2.7.906.9 2.685zm-1.477-4.4 2.29-.768c.537-.18.906-.422 1.107-.726.199-.314.227-.683.084-1.108-.142-.424-.386-.697-.73-.818-.348-.13-.79-.106-1.326.074l-2.29.768.865 2.579zM92.83 96.935c-.688.23-1.34.281-1.958.15-.618-.13-1.177-.454-1.677-.972-.493-.532-.9-1.274-1.219-2.224-.322-.96-.45-1.795-.384-2.504.066-.708.306-1.3.72-1.777.414-.477.98-.836 1.698-1.076.768-.258 1.515-.312 2.24-.162.733.137 1.381.46 1.946.968.574.505 1.004 1.182 1.289 2.031.288.86.356 1.664.202 2.413a3.938 3.938 0 0 1-.968 1.945c-.49.547-1.12.95-1.89 1.208zm-3.877 4.44-3.726-11.103 2.26-.759.56 1.669.769 2.442.96 2.36 1.543 4.597-2.366.794zm2.816-6.244c.394-.132.712-.34.955-.624.252-.288.413-.629.483-1.023.077-.409.037-.845-.119-1.31-.16-.476-.391-.848-.695-1.117a2.064 2.064 0 0 0-1.003-.525 2.104 2.104 0 0 0-1.138.079 2.19 2.19 0 0 0-.97.629 2.064 2.064 0 0 0-.484 1.023c-.07.395-.026.83.134 1.305.156.465.383.84.68 1.122.294.273.629.447 1.003.524.375.077.76.05 1.154-.083zM103.264 93.299l-.535-1.593-.269-.298-.957-2.852c-.169-.505-.458-.847-.867-1.025-.398-.181-.916-.165-1.553.048-.435.147-.84.362-1.218.646a3.47 3.47 0 0 0-.879.902l-1.404-1.368c.34-.463.794-.886 1.364-1.268a7.592 7.592 0 0 1 1.824-.9c1.244-.417 2.308-.447 3.193-.092.884.356 1.535 1.156 1.953 2.4l1.562 4.656-2.214.744zm-2.447.956c-.637.214-1.22.29-1.745.231-.53-.07-.98-.251-1.347-.544a2.388 2.388 0 0 1-.787-1.137c-.163-.485-.189-.949-.079-1.39.12-.446.405-.857.853-1.232.444-.386 1.081-.717 1.91-.996l2.17-.727.463 1.38-1.911.641c-.557.187-.91.407-1.062.66a.928.928 0 0 0-.074.784c.102.304.3.508.593.612.301.09.658.066 1.073-.073a2.19 2.19 0 0 0 .97-.63 1.74 1.74 0 0 0 .403-1.063l.73.97a2.228 2.228 0 0 1-.538 1.514c-.364.425-.904.759-1.622 1zM110.271 91.116c.769-.258 1.423-.59 1.962-.996.545-.42.93-.88 1.155-1.383.232-.517.26-1.038.083-1.564-.207-.617-.627-1.016-1.262-1.197-.638-.19-1.407-.135-2.307.167l.097.49a3.808 3.808 0 0 0 1.309-.726c.354-.32.594-.677.722-1.069.137-.395.14-.79.007-1.184a1.78 1.78 0 0 0-.953-1.08c-.459-.229-1.023-.332-1.691-.31-.667.02-1.377.169-2.129.444a7.393 7.393 0 0 0-1.491.736c-.482.308-.953.663-1.414 1.066l1.126 1.444c.394-.334.793-.62 1.197-.857a5.867 5.867 0 0 1 1.208-.574c.354-.119.659-.182.916-.19.253-.017.46.015.622.096.162.08.272.206.33.378a.683.683 0 0 1-.009.476c-.054.142-.167.275-.339.4a2.453 2.453 0 0 1-.667.326l-1.471.493.494 1.472 1.668-.56c.425-.143.772-.18 1.042-.114a.678.678 0 0 1 .532.48.74.74 0 0 1-.039.587c-.094.19-.264.37-.51.542-.239.16-.541.3-.905.422a7.887 7.887 0 0 1-1.552.352 6.597 6.597 0 0 1-1.508-.017l-.082 1.867a7.532 7.532 0 0 0 1.912.017 9.642 9.642 0 0 0 1.947-.434zM120.827 87.54c-.688.23-1.341.281-1.958.15-.618-.13-1.177-.454-1.677-.972-.493-.532-.9-1.274-1.219-2.224-.322-.96-.45-1.796-.384-2.504.066-.709.306-1.301.72-1.777.414-.477.98-.835 1.698-1.076.768-.258 1.515-.312 2.241-.162.732.137 1.38.46 1.945.968.574.505 1.004 1.182 1.289 2.031.288.86.356 1.664.202 2.413a3.938 3.938 0 0 1-.968 1.945c-.491.547-1.121.95-1.889 1.208zm-3.877 4.44-3.726-11.103 2.26-.759.56 1.669.769 2.442.961 2.36 1.542 4.597-2.366.794zm2.815-6.244a2.099 2.099 0 0 0 1.439-1.648c.077-.408.037-.844-.119-1.31-.159-.475-.391-.847-.695-1.116a2.066 2.066 0 0 0-1.003-.525 2.102 2.102 0 0 0-1.138.079 2.192 2.192 0 0 0-.971.629 2.066 2.066 0 0 0-.483 1.023c-.07.395-.026.83.134 1.305.156.465.383.84.68 1.122.294.273.628.447 1.003.524.375.077.759.05 1.153-.083zM131.261 83.904l-.535-1.593-.269-.298-.957-2.852c-.169-.505-.458-.847-.867-1.025-.398-.181-.916-.165-1.553.049a4.27 4.27 0 0 0-1.218.644c-.371.271-.664.572-.879.903l-1.404-1.368c.34-.463.794-.886 1.364-1.268a7.585 7.585 0 0 1 1.824-.9c1.244-.417 2.308-.447 3.193-.092.884.356 1.535 1.156 1.952 2.4l1.563 4.656-2.214.744zm-2.447.956c-.637.213-1.219.29-1.745.23-.53-.069-.979-.25-1.347-.543a2.382 2.382 0 0 1-.787-1.137c-.163-.485-.189-.949-.079-1.39.121-.446.405-.857.853-1.232.444-.385 1.081-.717 1.91-.996l2.17-.728.463 1.38-1.911.642c-.557.187-.91.407-1.062.66a.928.928 0 0 0-.074.785c.102.303.3.506.593.61.301.091.658.067 1.073-.073.394-.132.718-.342.97-.629a1.74 1.74 0 0 0 .403-1.063l.73.97a2.228 2.228 0 0 1-.538 1.514c-.364.425-.904.759-1.622 1zM139.642 81.294a5.756 5.756 0 0 1-1.917.322 4.028 4.028 0 0 1-1.736-.447c-.537-.292-1.027-.73-1.47-1.312-.433-.586-.802-1.334-1.108-2.244a9.27 9.27 0 0 1-.429-1.831 6.108 6.108 0 0 1 .012-1.624c.073-.52.226-1.004.458-1.453.238-.463.553-.884.943-1.262a7.058 7.058 0 0 1 1.43-1.07l3.624-2.077 1 1.925-3.199 1.833c-.188.109-.402.242-.641.401a3.776 3.776 0 0 0-.677.548 2.737 2.737 0 0 0-.525.8c-.134.305-.203.67-.205 1.099-.006.418.084.906.271 1.462.058.172.107.301.147.389.051.084.099.175.143.273.054.094.117.248.188.46l-1.008-.489c.063-.55.21-1.05.442-1.498.242-.453.562-.841.959-1.166a4.438 4.438 0 0 1 1.456-.792c.768-.258 1.493-.327 2.175-.207a3.476 3.476 0 0 1 1.798.831c.51.448.884 1.026 1.122 1.733.257.769.293 1.511.105 2.227-.191.705-.576 1.335-1.155 1.89-.569.55-1.303.977-2.203 1.279zm-.495-1.877c.395-.132.715-.335.96-.609.243-.284.396-.6.459-.947.07-.36.042-.728-.083-1.103a1.933 1.933 0 0 0-.584-.884 1.804 1.804 0 0 0-.922-.433c-.357-.06-.738-.022-1.143.114a2.405 2.405 0 0 0-.98.598c-.263.257-.434.551-.515.882-.08.33-.059.678.063 1.042.126.374.327.69.604.945.284.242.608.404.973.484.374.077.764.047 1.168-.089zM149.6 77.884c-.869.292-1.704.37-2.504.233a4.48 4.48 0 0 1-2.091-.952c-.598-.508-1.033-1.167-1.305-1.976-.274-.819-.325-1.606-.151-2.362.18-.77.545-1.443 1.094-2.021.555-.592 1.268-1.033 2.137-1.325.86-.289 1.69-.364 2.489-.228a4.216 4.216 0 0 1 2.087.937c.594.498 1.031 1.162 1.309 1.99.272.81.322 1.597.152 2.363a4.336 4.336 0 0 1-1.094 2.021c-.556.592-1.263 1.032-2.123 1.32zm-.651-1.941a2.19 2.19 0 0 0 .97-.63c.252-.287.414-.628.484-1.023.066-.405.022-.84-.135-1.305-.159-.475-.386-.85-.68-1.122a2.062 2.062 0 0 0-1.003-.524 2.187 2.187 0 0 0-1.153.083 2.183 2.183 0 0 0-.97.63c-.253.287-.419.63-.499 1.028-.07.395-.025.83.134 1.305.156.465.383.84.68 1.122.304.27.644.442 1.018.519.375.077.759.049 1.154-.083zM157.11 75.23l-2.27-6.766.714.368-3.292 1.104-.651-1.941 7.872-2.642.652 1.942-3.292 1.104.348-.724 2.27 6.765-2.351.79zM169.263 71.151l-4.029-2.952 1.545-1.784 5.275 3.8-2.791.936zm-5.78 1.94-2.738-8.161 2.366-.794 2.739 8.16-2.367.794zm.63-3.655-.636-1.896 2.852-.957.636 1.896-2.852.957zm3.295-1.899-2.296.5 1.488-5.072 2.518-.845-1.71 5.417zM176.994 68.692c-.931.312-1.811.405-2.641.278-.82-.13-1.527-.444-2.122-.942-.598-.508-1.033-1.166-1.304-1.975-.275-.82-.33-1.605-.167-2.358a4.236 4.236 0 0 1 1.064-2.01c.535-.585 1.217-1.017 2.046-1.295.799-.268 1.575-.337 2.327-.207.76.117 1.433.43 2.021.942.585.502 1.025 1.192 1.32 2.072.03.09.061.199.092.323l.076.33-6.629 2.224-.463-1.38 5.385-1.808-.773.715c-.142-.425-.352-.765-.629-1.02a1.929 1.929 0 0 0-.957-.49 2.137 2.137 0 0 0-1.154.084 2.22 2.22 0 0 0-.985.634c-.246.274-.4.602-.464.983-.066.371-.027.774.119 1.209l.122.364c.15.445.378.807.686 1.086.314.266.678.43 1.093.494.422.05.876-.007 1.361-.17.435-.146.792-.339 1.072-.579a2.93 2.93 0 0 0 .711-.897l1.717.943a3.938 3.938 0 0 1-1.079 1.46c-.492.412-1.107.742-1.845.99z" fill="#4E3536"/></svg>