<svg width="24" height="24" fill="none" xmlns="http://www.w3.org/2000/svg"><path d="M14.37 3.52c-.46 0-.9.04-1.33.11a27.3 27.3 0 0 0-2.4-.15C4.95 3.48 0 5.61 0 13.05 0 19.1 4.72 24 11.36 24c6.65 0 12.03-4.9 12.03-10.95 0-7.53-6.28-9.53-9.02-9.53Z" fill="#DD2E44"/><path d="M4.96 0c1.1 1.1 1.86 1.52 2.2 3.29.2 1.04 1.51 1 1.51 1s-2.61 1.19-3.7 2.28c0 0 3.28-1.1 4.37-1.1 0 0 2.2 1.1 2.2 2.2 0 0 0-2.2-1.1-2.2 0 0 3.28 0 3.28 2.2 0 0 0-3.29-1.1-3.29 0 0 3.3-1.1 4.4 0 0 0-1.14-1.15-3.3-1.1 0 0 1.1-1.09 3.3-1.09 0 0-3.55-1.01-4.64 1.18 0 0-.93-.93.92-2.78 0 0-2.86.5-2.86 2.7 0 0-1.04-.03-1.77-.85A10.65 10.65 0 0 0 4.97 0Z" fill="#77B255"/></svg>